<svg version="1.1" id="Layer_1" xmlns="http://www.w3.org/2000/svg" xmlns:xlink="http://www.w3.org/1999/xlink" x="0px" y="0px"
	 width="100%" viewBox="0 0 600 600" enable-background="new 0 0 600 600" xml:space="preserve">
<path fill="#020D21" opacity="1.000000" stroke="none" 
	d="
M601.000000,2.000000 
	C601.000000,201.596237 601.000000,401.192474 601.000000,601.000000 
	C401.640900,601.000000 202.281693,601.000000 2.461615,600.531372 
	C1.997555,402.927551 1.994105,205.792389 1.992445,8.657250 
	C1.992389,2.043727 2.000790,2.016963 8.596075,2.014552 
	C38.091270,2.003770 67.586479,2.009852 97.081680,2.009321 
	C265.054443,2.006297 433.027222,2.003123 601.000000,2.000000 
M320.060516,335.551178 
	C320.373138,335.694885 320.685791,335.838593 321.284454,336.454346 
	C321.413818,336.585144 321.543213,336.715942 321.638641,337.012207 
	C321.638641,337.012207 321.588989,337.081665 321.588989,337.081665 
	C321.588989,337.081665 321.619812,336.830994 322.303925,336.944244 
	C322.535034,336.948303 322.766174,336.952332 323.401031,337.249908 
	C323.712158,337.390839 324.037170,337.440002 324.950958,337.804199 
	C326.337616,338.023438 327.724243,338.242676 329.959106,338.710236 
	C332.316071,338.664215 334.673004,338.618225 337.574524,338.820679 
	C339.570343,338.320923 341.566162,337.821167 343.774933,337.381500 
	C343.774933,337.381500 343.971649,337.280182 344.584778,337.352753 
	C352.145386,335.311432 357.811737,330.827454 358.168213,322.784149 
	C358.864227,307.078979 358.686890,291.334015 358.753265,275.605011 
	C358.757141,274.689636 357.729095,272.991028 357.149628,272.977173 
	C353.087311,272.879791 349.016510,273.124817 344.948822,273.271057 
	C343.337738,273.328979 341.436493,274.010803 340.164856,273.389801 
	C332.453552,269.623993 325.409912,271.074463 317.834778,275.390594 
	C316.152588,275.864075 314.470398,276.337585 312.600372,276.863983 
	C311.919922,276.021118 311.100739,275.006409 309.799957,273.412018 
	C309.129608,273.074921 308.459259,272.737793 307.371796,272.182190 
	C306.613068,272.304993 305.854309,272.427765 304.408295,272.714172 
	C303.938934,272.746490 303.469604,272.778809 302.509857,272.598175 
	C301.656891,273.013519 300.803894,273.428833 299.497742,274.237305 
	C298.821136,274.657532 298.144531,275.077759 296.893707,275.111237 
	C296.074677,274.704102 295.255615,274.296936 293.825256,273.391968 
	C291.701538,273.140930 289.573853,272.918945 287.454865,272.632904 
	C282.554688,271.971344 280.739746,273.859161 280.884186,278.986023 
	C281.225403,291.097229 281.097412,303.225128 280.964691,315.344147 
	C280.922760,319.171051 282.274994,320.992615 286.183685,320.482819 
	C289.693726,320.024994 294.747528,322.376709 294.678772,315.522583 
	C294.610504,308.718689 294.756561,301.909668 294.953400,295.107056 
	C295.116577,289.466492 297.086395,287.440399 303.492249,286.816528 
	C305.739929,287.930145 307.987579,289.043762 310.266357,291.068970 
	C310.323120,293.889496 310.184174,296.730011 310.469604,299.527191 
	C311.926056,313.799469 321.076111,320.956879 335.644409,318.840546 
	C336.062073,318.714294 336.479767,318.588043 337.610992,318.337402 
	C343.940308,315.837738 344.276337,316.024994 343.324036,322.200378 
	C342.344879,323.366516 341.365723,324.532654 339.782898,325.911438 
	C339.216522,326.213593 338.650146,326.515778 337.476196,326.689240 
	C336.663666,326.833557 335.851166,326.977905 334.269196,327.015167 
	C333.492920,327.040039 332.716675,327.064911 331.323425,326.821381 
	C328.892883,325.552948 326.462341,324.284546 323.269348,322.869690 
	C322.497467,322.901245 321.725586,322.932800 320.350098,322.808167 
	C318.897339,322.876892 317.444550,322.945618 315.334290,322.940216 
	C314.898254,322.995422 314.462250,323.050598 313.562958,322.974731 
	C313.109680,324.132599 311.937866,325.720154 312.328491,326.373383 
	C313.948700,329.082733 316.040710,331.509979 318.303741,334.458557 
	C318.790375,334.676941 319.276978,334.895355 320.060516,335.551178 
M175.692932,219.416122 
	C175.144547,219.415848 174.596146,219.415573 173.385757,219.271713 
	C172.935211,219.261581 172.484650,219.251450 171.283875,219.057983 
	C170.521057,219.122192 169.758224,219.186417 168.060745,219.187515 
	C139.842758,219.148849 111.624763,219.083588 83.406815,219.097244 
	C78.604446,219.099579 73.802238,219.440247 68.350914,219.424698 
	C67.152115,219.890366 65.953316,220.356049 64.141876,220.890671 
	C63.445351,221.295059 62.748825,221.699432 61.348858,222.152283 
	C51.730724,226.835281 45.726761,234.595901 45.619537,245.158081 
	C45.297043,276.925262 45.564850,308.701172 45.888081,340.470795 
	C46.028049,354.227814 57.377514,366.286591 71.096367,366.614288 
	C91.039886,367.090698 111.005577,366.639435 131.774857,366.732452 
	C132.873093,366.681671 133.971313,366.630859 135.851562,366.777985 
	C147.821564,366.797882 159.796463,367.041229 171.760269,366.778656 
	C185.376648,366.479767 198.031616,354.059784 198.131149,340.404572 
	C198.365051,308.314026 198.258118,276.219604 198.060730,244.128159 
	C198.002167,234.604950 190.833389,225.364929 181.276352,221.911072 
	C179.539642,221.240509 177.802933,220.569946 176.177887,219.862900 
	C176.177887,219.862900 176.145966,219.749832 175.692932,219.416122 
M387.122772,319.081573 
	C387.122772,319.081573 387.142212,319.131866 387.870880,319.052551 
	C389.421814,319.148163 390.972229,319.253876 392.523834,319.337341 
	C396.183472,319.534271 399.897552,320.099304 403.458618,319.593445 
	C404.175323,319.491608 404.312347,315.309174 404.844025,312.076141 
	C404.772858,304.714417 404.701691,297.352692 404.768402,289.185333 
	C404.131775,282.160309 401.932251,275.439240 394.698425,273.410614 
	C388.832336,271.765564 382.226593,271.505554 376.143158,272.239929 
	C370.042236,272.976501 365.936462,277.414703 364.391174,283.730530 
	C363.720764,286.470490 364.475494,287.931335 367.430511,287.965485 
	C371.504425,288.012543 375.441650,288.644684 378.857056,284.944885 
	C381.681030,281.885773 385.876221,282.498077 388.885651,284.961426 
	C390.056976,285.920197 389.609772,288.856232 389.249268,290.903381 
	C388.829498,291.004883 388.409760,291.106384 387.115997,291.094727 
	C382.685822,291.786377 378.214050,292.282227 373.834564,293.212433 
	C365.935364,294.890228 362.519745,299.842529 363.198730,308.708862 
	C363.332916,309.129089 363.467133,309.549286 363.527405,310.678162 
	C365.398468,317.420868 368.988007,320.388306 376.726257,321.162170 
	C379.492798,320.859131 382.259308,320.556061 385.538757,320.236145 
	C386.073517,319.866119 386.608246,319.496124 387.122772,319.081573 
M410.541138,273.759247 
	C410.564545,274.732147 410.587982,275.705017 410.397064,277.451416 
	C410.465424,277.977386 410.533813,278.503326 410.318939,279.915375 
	C410.311554,291.899658 410.357178,303.884399 410.263458,315.867981 
	C410.236511,319.315216 411.620544,320.777618 415.069336,320.380890 
	C416.382568,320.229828 417.739624,320.251129 419.057129,320.385529 
	C422.548859,320.741791 423.921112,319.071442 423.819550,315.748718 
	C423.672363,310.933990 423.585938,306.117401 423.684326,300.416565 
	C423.633514,298.607574 423.582703,296.798615 423.800201,294.315704 
	C423.882477,292.885620 423.964783,291.455536 424.569824,289.311127 
	C424.688477,289.040955 424.807129,288.770813 425.330719,288.130432 
	C426.053253,287.075714 426.775818,286.020996 428.338440,284.721863 
	C436.507050,281.897034 440.983215,284.671753 441.366913,293.197174 
	C441.695312,300.494537 441.653229,307.814423 441.571655,315.122040 
	C441.530243,318.835480 442.676727,320.852081 446.755219,320.301361 
	C448.057373,320.125549 449.415497,320.224915 450.734924,320.343781 
	C453.806763,320.620544 454.850433,319.093658 454.810913,316.226379 
	C454.746796,311.575104 455.044861,306.910828 454.806152,302.271820 
	C454.475220,295.841949 454.427490,289.292206 453.076355,283.049622 
	C451.706207,276.718872 446.798553,272.937714 440.375854,271.903778 
	C434.066071,270.888000 428.032410,271.429443 423.452271,277.033203 
	C422.960663,275.793549 422.469086,274.553864 421.162079,272.853760 
	C417.783417,273.032654 414.404755,273.211578 410.541138,273.759247 
M270.919220,308.428955 
	C278.303314,297.014404 278.652222,284.988556 273.502258,272.765594 
	C270.113647,264.723022 263.998260,258.947754 255.598557,256.607666 
	C229.761322,249.409698 209.271194,268.789032 214.346954,295.438293 
	C216.800247,308.318787 223.959885,317.590240 237.062866,320.334686 
	C250.062347,323.057495 261.868896,320.198059 270.919220,308.428955 
M547.217224,272.147705 
	C540.988831,270.862396 534.837280,271.157196 529.287231,274.363129 
	C518.770142,280.438232 514.658447,294.641022 519.681091,306.975586 
	C525.231567,320.606384 535.859375,322.727936 547.822571,320.692139 
	C556.174316,319.270966 562.066589,312.114960 561.357361,305.603851 
	C553.699829,304.473938 553.191467,304.569916 547.450684,308.228851 
	C541.066528,312.297913 533.660706,308.885712 532.648499,300.921906 
	C534.566284,300.721313 536.477112,300.364319 538.390564,300.349609 
	C545.215698,300.297089 552.042480,300.315216 558.867310,300.405273 
	C561.283875,300.437164 562.958801,300.133484 563.309387,297.114441 
	C564.553284,286.404175 558.108704,275.821320 547.217224,272.147705 
M460.976135,308.461700 
	C460.972015,310.786011 461.092102,313.118744 460.934845,315.432648 
	C460.694153,318.975128 461.976227,320.797974 465.755951,320.392456 
	C467.069672,320.251526 468.417664,320.264984 469.736755,320.371826 
	C472.845795,320.623566 474.280762,319.458527 474.261261,316.142151 
	C474.183228,302.861115 474.330536,289.578461 474.187744,276.298615 
	C474.174530,275.071259 472.810547,272.918732 471.881744,272.808075 
	C468.380890,272.391052 464.800598,272.640717 460.973267,272.640717 
	C460.973267,284.924774 460.973267,296.199707 460.976135,308.461700 
M492.461823,292.872650 
	C489.636322,296.574860 486.401215,300.043274 484.113464,304.052338 
	C482.243866,307.328613 481.195770,311.179810 480.349548,314.904724 
	C479.465759,318.794983 481.257812,320.568665 485.505951,320.445190 
	C494.156769,320.193787 502.830933,320.095184 511.473450,320.457916 
	C516.497681,320.668793 516.310486,317.713562 516.305664,314.409882 
	C516.300842,311.106689 516.481995,308.022491 511.427734,308.511627 
	C506.785553,308.960876 502.065643,308.607086 495.902069,308.607086 
	C501.772339,300.851074 506.250824,294.273773 511.429321,288.303650 
	C515.474548,283.640045 516.219177,278.788940 514.876587,272.926483 
	C503.662964,272.926483 492.601929,272.926483 481.421387,272.926483 
	C481.421387,277.035065 481.421387,280.731934 481.421387,285.075165 
	C486.913818,285.075165 491.958160,285.075165 498.244629,285.075165 
	C495.956390,288.167297 494.428955,290.231354 492.461823,292.872650 
M459.956726,258.777557 
	C459.371429,263.185333 461.537781,265.898285 465.578857,266.886230 
	C469.211670,267.774353 472.574432,267.016724 474.603119,263.367401 
	C476.650604,259.684387 475.283386,254.949005 471.657135,253.068909 
	C467.161804,250.738220 462.559143,252.688736 459.956726,258.777557 
M36.998981,329.196381 
	C36.998981,300.325653 36.998981,271.454926 36.998981,242.584198 
	C36.550598,242.591568 36.102215,242.598938 35.653831,242.606308 
	C35.653831,273.205505 35.653831,303.804718 35.653831,334.403900 
	C35.988323,334.411438 36.322811,334.418976 36.657303,334.426514 
	C36.770813,332.977631 36.884323,331.528717 36.998981,329.196381 
M315.511932,273.491699 
	C315.511932,273.491699 315.488892,273.490997 315.511932,273.491699 
z"/>
<path fill="#374256" opacity="1.000000" stroke="none" 
	d="
M601.000000,1.500000 
	C433.027222,2.003123 265.054443,2.006297 97.081680,2.009321 
	C67.586479,2.009852 38.091270,2.003770 8.596075,2.014552 
	C2.000790,2.016963 1.992389,2.043727 1.992445,8.657250 
	C1.994105,205.792389 1.997555,402.927551 2.000360,600.531372 
	C1.666665,600.833313 1.056199,600.684082 1.044451,600.497192 
	C0.960999,599.169128 1.000000,597.833313 1.000000,596.500000 
	C1.000000,398.000000 1.000000,199.500000 1.000000,1.000000 
	C201.000000,1.000000 401.000000,1.000000 601.000000,1.500000 
z"/>
<path fill="#0244C4" opacity="1.000000" stroke="none" 
	d="
M172.034103,219.241318 
	C172.484650,219.251450 172.935211,219.261581 173.957489,219.470047 
	C175.068130,219.695541 175.607040,219.722687 176.145966,219.749832 
	C176.145966,219.749832 176.177887,219.862900 176.196320,220.167206 
	C177.475143,221.976562 178.735535,223.481598 179.982666,225.384567 
	C179.180679,231.656189 180.870422,236.122467 184.988449,237.997147 
	C186.076050,238.492294 187.673325,237.867844 189.036575,237.757492 
	C188.566071,236.705322 188.138840,235.631119 187.616364,234.605423 
	C186.386353,232.190613 185.110901,229.798981 183.318375,226.375244 
	C190.175095,228.080475 192.555283,231.352142 192.602585,237.887314 
	C192.636185,242.526489 192.057190,247.168076 192.032761,251.810059 
	C191.953217,266.920471 191.999786,282.031555 192.007462,297.142395 
	C192.008224,298.640442 191.920029,300.163910 192.161362,301.628113 
	C192.345093,302.742950 192.986038,303.782379 193.423553,304.855377 
	C193.982010,304.785553 194.540482,304.715729 195.098938,304.645905 
	C195.098938,294.608856 195.098938,284.571808 195.098938,274.534729 
	C195.505188,274.561523 195.911453,274.588287 196.317703,274.615051 
	C196.317703,289.532532 196.317703,304.450012 196.317703,319.367493 
	C196.069901,319.368195 195.822098,319.368896 195.574295,319.369598 
	C195.074554,317.177399 194.574829,314.985168 194.075089,312.792938 
	C193.485413,312.852264 192.895737,312.911591 192.306061,312.970917 
	C192.306061,315.988617 192.293152,319.006409 192.310440,322.024017 
	C192.322693,324.163605 192.240952,326.315613 192.440338,328.439606 
	C192.790482,332.169464 193.382416,335.876160 193.761749,339.603882 
	C194.057938,342.514343 194.674103,345.511597 194.270477,348.345276 
	C193.700836,352.344849 192.338669,356.191589 186.780838,353.400482 
	C186.153183,353.085266 184.822128,353.131897 184.419220,353.567505 
	C180.050583,358.290771 174.254349,356.866882 169.035919,356.906494 
	C142.055679,357.111420 115.073029,356.995453 88.091225,357.012146 
	C86.234741,357.013306 84.378365,357.183472 82.521935,357.275024 
	C82.543274,357.919189 82.564606,358.563324 82.585938,359.207489 
	C115.422829,359.207489 148.259720,359.207489 181.096603,359.207489 
	C181.122574,360.024780 181.148560,360.842041 181.174530,361.659332 
	C179.396500,361.753540 177.608017,361.757660 175.842819,361.962402 
	C173.008072,362.291290 169.828476,362.077728 167.460434,363.341278 
	C164.904938,364.704865 163.144272,365.326141 160.760834,363.405609 
	C159.804688,362.635162 158.356949,362.106873 157.129211,362.099609 
	C147.349396,362.041595 137.568375,362.104950 127.788406,362.200806 
	C124.819359,362.229919 121.834198,362.754089 118.888840,362.559845 
	C114.451897,362.267242 110.052010,361.179352 105.621155,361.074890 
	C95.633430,360.839386 85.624733,361.278503 75.648804,360.862244 
	C71.629974,360.694580 66.145119,360.278809 64.024719,357.731079 
	C60.201107,353.136902 55.361164,352.160309 50.274456,350.661224 
	C49.851082,347.250977 48.873322,343.959381 49.186256,340.795441 
	C49.628925,336.319855 51.409100,331.980042 51.892311,327.503876 
	C52.285244,323.863983 53.400887,322.010559 57.275093,321.954620 
	C60.417103,321.909180 63.551361,321.327606 66.748810,321.450439 
	C66.847900,326.410858 66.830444,330.906067 66.939522,335.398224 
	C67.115028,342.625702 71.430161,347.246399 78.659332,347.717346 
	C82.638054,347.976532 86.644249,347.814087 90.883698,347.753876 
	C92.032173,347.476349 92.935013,347.286682 94.233749,347.212799 
	C100.714203,347.285095 106.798767,347.241669 113.255707,347.335571 
	C125.455055,347.316681 137.282013,347.160461 149.064087,347.018860 
	C149.019211,347.033447 148.982635,346.946442 149.146545,347.089355 
	C149.517868,347.432190 149.727829,347.629364 150.259491,347.828735 
	C151.597977,347.135742 152.617340,346.437805 153.875000,346.071045 
	C164.742706,352.120300 176.928635,345.153137 176.930435,333.325684 
	C176.932861,317.241669 176.891449,301.157684 176.891464,284.628845 
	C176.879684,282.708832 176.845261,281.233673 176.879364,279.365387 
	C176.931808,277.129120 176.915771,275.285950 176.908386,273.011108 
	C177.357773,268.758362 174.863892,267.400513 171.822586,267.359711 
	C168.314423,267.312622 163.717575,264.682831 161.661163,269.539001 
	C160.009201,273.440155 157.363739,274.162933 153.788025,273.613220 
	C153.837860,272.496368 153.912048,271.752960 154.169312,270.691956 
	C155.903107,267.929596 157.453827,265.484802 159.342773,262.998871 
	C160.132690,262.994476 160.584396,263.031219 161.371552,263.242004 
	C164.801361,263.373596 167.895737,263.331146 171.330673,263.218658 
	C172.360916,263.063416 173.050613,262.978149 174.064026,262.877869 
	C175.030304,262.362274 175.672867,261.861755 176.315430,261.361267 
	C175.784515,260.895172 175.253586,260.429108 174.526825,259.684875 
	C173.552139,258.596222 172.773300,257.785675 171.881622,256.909790 
	C171.511017,256.756622 171.262863,256.782074 170.679794,256.948669 
	C169.875320,256.954651 169.415405,256.932800 168.590271,256.738098 
	C166.753082,256.378418 165.284454,256.064545 163.808578,256.025513 
	C154.934494,255.790573 155.023788,255.810913 154.945709,246.791901 
	C154.923157,244.187622 154.221786,241.589233 153.672882,238.874451 
	C153.313492,238.591431 153.142227,238.396286 152.906097,237.840851 
	C150.732529,233.837036 148.386856,235.229416 147.483582,237.922775 
	C146.139938,241.929108 145.329941,246.242203 145.123337,250.465378 
	C144.925217,254.514893 143.556900,256.096710 139.468811,256.046112 
	C127.314232,255.895676 115.154633,255.872696 103.001190,256.064758 
	C98.933029,256.128998 97.411880,255.094986 97.842583,250.684067 
	C98.470444,244.253952 98.904778,237.726059 92.732384,232.903168 
	C91.131927,231.652634 90.901039,228.649323 89.524231,225.130005 
	C96.435181,224.325699 102.099144,223.191818 107.780556,223.096313 
	C123.429672,222.833252 139.086868,223.079437 154.738693,222.916061 
	C156.832733,222.894211 158.914215,221.671005 161.443390,221.002823 
	C164.928314,220.705063 167.971329,220.408615 171.193069,219.976837 
	C171.616089,219.667419 171.836868,219.467361 172.034103,219.241318 
M64.241096,348.618652 
	C66.006279,349.820496 67.771454,351.022339 69.536621,352.224213 
	C69.640045,351.352295 70.140297,349.984680 69.777939,349.694580 
	C68.237968,348.461700 67.372078,344.424805 64.241096,348.618652 
M72.707230,356.996979 
	C74.650223,356.856537 76.593208,356.716095 78.536194,356.575653 
	C78.487923,356.271912 78.439644,355.968170 78.391373,355.664429 
	C75.117226,355.664429 71.843086,355.664429 68.568947,355.664429 
	C68.576614,355.973877 68.584290,356.283325 68.591965,356.592773 
	C69.699921,356.726135 70.807884,356.859497 72.707230,356.996979 
M96.124672,227.381363 
	C96.485680,227.213348 96.846687,227.045334 97.207703,226.877335 
	C96.934181,226.597321 96.660660,226.317307 96.387138,226.037292 
	C96.209106,226.393951 96.031075,226.750610 96.124672,227.381363 
z"/>
<path fill="#0443BC" opacity="1.000000" stroke="none" 
	d="
M66.689056,320.983826 
	C63.551361,321.327606 60.417103,321.909180 57.275093,321.954620 
	C53.400887,322.010559 52.285244,323.863983 51.892311,327.503876 
	C51.409100,331.980042 49.628925,336.319855 49.186256,340.795441 
	C48.873322,343.959381 49.851082,347.250977 50.274456,350.661224 
	C55.361164,352.160309 60.201107,353.136902 64.024719,357.731079 
	C66.145119,360.278809 71.629974,360.694580 75.648804,360.862244 
	C85.624733,361.278503 95.633430,360.839386 105.621155,361.074890 
	C110.052010,361.179352 114.451897,362.267242 118.888840,362.559845 
	C121.834198,362.754089 124.819359,362.229919 127.788406,362.200806 
	C137.568375,362.104950 147.349396,362.041595 157.129211,362.099609 
	C158.356949,362.106873 159.804688,362.635162 160.760834,363.405609 
	C163.144272,365.326141 164.904938,364.704865 167.460434,363.341278 
	C169.828476,362.077728 173.008072,362.291290 175.842819,361.962402 
	C177.608017,361.757660 179.396500,361.753540 181.174530,361.659332 
	C181.148560,360.842041 181.122574,360.024780 181.096603,359.207489 
	C148.259720,359.207489 115.422829,359.207489 82.585938,359.207489 
	C82.564606,358.563324 82.543274,357.919189 82.521935,357.275024 
	C84.378365,357.183472 86.234741,357.013306 88.091225,357.012146 
	C115.073029,356.995453 142.055679,357.111420 169.035919,356.906494 
	C174.254349,356.866882 180.050583,358.290771 184.419220,353.567505 
	C184.822128,353.131897 186.153183,353.085266 186.780838,353.400482 
	C192.338669,356.191589 193.700836,352.344849 194.270477,348.345276 
	C194.674103,345.511597 194.057938,342.514343 193.761749,339.603882 
	C193.382416,335.876160 192.790482,332.169464 192.440338,328.439606 
	C192.240952,326.315613 192.322693,324.163605 192.310440,322.024017 
	C192.293152,319.006409 192.306061,315.988617 192.306061,312.970917 
	C192.895737,312.911591 193.485413,312.852264 194.075089,312.792938 
	C194.574829,314.985168 195.074554,317.177399 195.574295,319.369598 
	C195.822098,319.368896 196.069901,319.368195 196.317703,319.367493 
	C196.317703,304.450012 196.317703,289.532532 196.317703,274.615051 
	C195.911453,274.588287 195.505188,274.561523 195.098938,274.534729 
	C195.098938,284.571808 195.098938,294.608856 195.098938,304.645905 
	C194.540482,304.715729 193.982010,304.785553 193.423553,304.855377 
	C192.986038,303.782379 192.345093,302.742950 192.161362,301.628113 
	C191.920029,300.163910 192.008224,298.640442 192.007462,297.142395 
	C191.999786,282.031555 191.953217,266.920471 192.032761,251.810059 
	C192.057190,247.168076 192.636185,242.526489 192.602585,237.887314 
	C192.555283,231.352142 190.175095,228.080475 183.318375,226.375244 
	C185.110901,229.798981 186.386353,232.190613 187.616364,234.605423 
	C188.138840,235.631119 188.566071,236.705322 189.036575,237.757492 
	C187.673325,237.867844 186.076050,238.492294 184.988449,237.997147 
	C180.870422,236.122467 179.180679,231.656189 180.080887,225.114334 
	C180.770584,223.690674 181.348816,222.935181 181.927032,222.179688 
	C190.833389,225.364929 198.002167,234.604950 198.060730,244.128159 
	C198.258118,276.219604 198.365051,308.314026 198.131149,340.404572 
	C198.031616,354.059784 185.376648,366.479767 171.760269,366.778656 
	C159.796463,367.041229 147.821564,366.797882 135.362686,366.349426 
	C134.195862,365.290833 133.517929,364.660828 132.839966,364.030823 
	C132.213898,364.881805 131.587845,365.732788 130.961792,366.583740 
	C111.005577,366.639435 91.039886,367.090698 71.096367,366.614288 
	C57.377514,366.286591 46.028049,354.227814 45.888081,340.470795 
	C45.564850,308.701172 45.297043,276.925262 45.619537,245.158081 
	C45.726761,234.595901 51.730724,226.835281 62.005157,222.265961 
	C64.774300,222.253616 66.887146,222.127609 69.260696,222.131073 
	C70.875534,223.280243 72.229675,224.299973 73.583809,225.319702 
	C71.630600,226.038528 69.711174,226.894318 67.702843,227.389709 
	C67.127533,227.531616 66.336227,226.518311 65.569672,226.237457 
	C64.675873,225.909973 63.279278,225.302109 62.826431,225.681625 
	C58.671642,229.163788 54.558128,232.719482 50.760971,236.576996 
	C50.213375,237.133270 51.408043,239.404556 51.796444,240.882187 
	C53.010239,240.372604 54.374695,240.063751 55.395748,239.297363 
	C56.430378,238.520782 57.005840,237.149948 58.007038,236.305832 
	C58.818909,235.621338 60.383099,234.687103 60.871197,235.004684 
	C61.810822,235.616058 62.854763,237.120956 62.720879,238.100174 
	C62.472870,239.914032 61.896118,242.368134 60.587952,243.216293 
	C57.373222,245.300598 56.968140,248.104446 56.987282,251.393875 
	C57.031860,259.054932 57.247677,266.729401 56.851871,274.370331 
	C56.723213,276.854126 54.845676,279.225159 53.895084,281.696625 
	C53.288994,283.272369 52.040436,285.932953 52.577545,286.405731 
	C56.873974,290.187469 58.194641,297.902863 66.025391,297.468506 
	C65.985207,299.031708 66.005745,300.171570 66.159088,301.622711 
	C66.424271,308.283966 66.556664,314.633881 66.689056,320.983826 
M186.122726,355.804321 
	C186.014572,355.863068 185.906418,355.921814 185.798264,355.980530 
	C185.877686,356.070068 185.957092,356.159607 186.036530,356.249146 
	C186.106003,356.146881 186.175476,356.044617 186.122726,355.804321 
z"/>
<path fill="#0746C1" opacity="1.000000" stroke="none" 
	d="
M270.712067,308.722260 
	C261.868896,320.198059 250.062347,323.057495 237.062866,320.334686 
	C223.959885,317.590240 216.800247,308.318787 214.346954,295.438293 
	C209.271194,268.789032 229.761322,249.409698 255.598557,256.607666 
	C263.998260,258.947754 270.113647,264.723022 273.502258,272.765594 
	C278.652222,284.988556 278.303314,297.014404 270.712067,308.722260 
M228.308014,288.403839 
	C230.065155,293.157715 231.081177,298.384766 233.746262,302.558960 
	C238.183792,309.509216 251.560120,309.514648 256.726471,303.183868 
	C262.673279,295.896759 263.619232,284.810699 259.085297,276.466339 
	C256.559143,271.817108 252.521439,269.443207 247.457703,268.960785 
	C236.285690,267.896393 229.626175,274.463928 228.308014,288.403839 
z"/>
<path fill="#0D9BEF" opacity="1.000000" stroke="none" 
	d="
M410.602203,279.029297 
	C410.533813,278.503326 410.465424,277.977386 410.610229,276.813446 
	C410.890961,275.247162 410.958527,274.318817 411.026093,273.390503 
	C414.404755,273.211578 417.783417,273.032654 421.558258,273.428223 
	C422.639313,275.161438 423.324219,276.320160 424.009094,277.478912 
	C428.032410,271.429443 434.066071,270.888000 440.375854,271.903778 
	C446.798553,272.937714 451.706207,276.718872 453.076355,283.049622 
	C454.427490,289.292206 454.475220,295.841949 454.806152,302.271820 
	C455.044861,306.910828 454.746796,311.575104 454.810913,316.226379 
	C454.850433,319.093658 453.806763,320.620544 450.734924,320.343781 
	C449.415497,320.224915 448.057373,320.125549 446.755219,320.301361 
	C442.676727,320.852081 441.530243,318.835480 441.571655,315.122040 
	C441.653229,307.814423 441.695312,300.494537 441.366913,293.197174 
	C440.983215,284.671753 436.507050,281.897034 427.649780,284.942261 
	C426.282654,286.275299 425.604218,287.387970 424.925781,288.500641 
	C424.807129,288.770813 424.688477,289.040955 424.039978,289.752686 
	C423.517365,291.792694 423.524628,293.391174 423.531891,294.989624 
	C423.582703,296.798615 423.633514,298.607574 423.451172,301.215088 
	C423.218018,306.745392 423.218018,311.477112 423.218018,316.478973 
	C419.995422,316.478973 417.532410,316.737244 415.167511,316.367737 
	C414.021149,316.188568 413.058685,314.832581 412.305847,313.810547 
	C413.081573,311.652832 413.564392,309.693939 414.047211,307.735046 
	C413.360046,307.654266 412.672852,307.573486 411.985687,307.492706 
	C411.985687,309.657074 411.985687,311.821442 411.810730,313.615479 
	C411.451447,304.544006 411.290955,295.842255 411.068542,287.142059 
	C410.999329,284.435608 410.762360,281.733429 410.602203,279.029297 
M419.864105,291.012726 
	C419.780243,291.267273 419.696350,291.521790 419.612457,291.776337 
	C419.864868,291.787140 420.117310,291.797943 420.369720,291.808746 
	C420.300415,291.548126 420.231110,291.287476 419.864105,291.012726 
M420.494934,295.479187 
	C420.494934,295.479187 420.503845,295.511169 420.494934,295.479187 
z"/>
<path fill="#1A97DF" opacity="1.000000" stroke="none" 
	d="
M547.606445,272.251221 
	C558.108704,275.821320 564.553284,286.404175 563.309387,297.114441 
	C562.958801,300.133484 561.283875,300.437164 558.867310,300.405273 
	C552.042480,300.315216 545.215698,300.297089 538.390564,300.349609 
	C536.477112,300.364319 534.566284,300.721313 532.648499,300.921906 
	C533.660706,308.885712 541.066528,312.297913 547.450684,308.228851 
	C553.191467,304.569916 553.699829,304.473938 561.357361,305.603851 
	C562.066589,312.114960 556.174316,319.270966 547.822571,320.692139 
	C535.859375,322.727936 525.231567,320.606384 519.681091,306.975586 
	C514.658447,294.641022 518.770142,280.438232 529.287231,274.363129 
	C534.837280,271.157196 540.988831,270.862396 547.606445,272.251221 
M543.987427,319.851166 
	C547.212524,318.269562 550.556152,316.878357 553.590698,314.990509 
	C554.503418,314.422668 555.239685,312.182648 554.834290,311.227356 
	C554.296936,309.960999 552.559753,309.203796 552.435120,309.104187 
	C550.485535,311.258118 549.149536,313.859131 548.013123,313.774658 
	C544.848328,313.539276 541.786194,312.113434 538.647827,311.294678 
	C530.454041,309.156860 528.039062,305.072876 529.774963,297.013245 
	C532.209900,297.183655 534.569946,297.348816 536.929932,297.513947 
	C537.216248,296.887268 537.502502,296.260559 537.788757,295.633881 
	C531.934021,294.474701 530.027100,290.947113 528.420532,285.710327 
	C527.019226,281.142670 528.609009,281.187317 531.399170,281.172363 
	C536.208130,281.146576 541.036072,281.890656 545.824646,281.659576 
	C550.469910,281.435425 552.407715,282.209351 551.827026,287.672699 
	C551.034851,295.125916 553.585266,296.480072 560.699646,293.476593 
	C560.953003,293.369659 561.078674,292.960449 561.254822,292.685883 
	C558.702942,283.451141 547.444702,271.525177 543.108826,273.725830 
	C543.280029,274.625122 543.460754,275.574829 543.885315,277.805237 
	C540.910400,276.417206 538.906616,274.767242 536.924316,274.792694 
	C535.444519,274.811676 533.992554,276.994629 532.528198,278.213959 
	C529.618652,279.275055 526.139954,280.225433 524.414307,282.503693 
	C522.247559,285.364410 520.850281,289.208282 520.284180,292.810638 
	C518.049133,307.033020 527.921753,320.587463 543.987427,319.851166 
M532.119995,289.915649 
	C532.520020,290.537140 532.907837,291.690063 533.321838,291.699554 
	C538.647339,291.821411 543.976562,291.780090 549.449341,291.780090 
	C549.481506,286.630615 547.143799,284.138672 543.299805,283.172333 
	C538.195984,281.889343 535.192383,283.662292 532.119995,289.915649 
M541.931030,294.279938 
	C540.500916,299.064148 544.093750,296.810364 545.604980,297.473328 
	C545.837952,297.117279 546.070984,296.761200 546.304016,296.405151 
	C545.060425,295.671173 543.816895,294.937164 541.931030,294.279938 
z"/>
<path fill="#084CC4" opacity="1.000000" stroke="none" 
	d="
M303.000244,272.811127 
	C303.469604,272.778809 303.938934,272.746490 305.088379,272.703949 
	C306.441956,272.596039 307.115448,272.498383 307.788910,272.400696 
	C308.459259,272.737793 309.129608,273.074921 309.956787,274.146973 
	C309.902344,283.893890 309.902344,283.893890 303.015198,286.364563 
	C297.086395,287.440399 295.116577,289.466492 294.953400,295.107056 
	C294.756561,301.909668 294.610504,308.718689 294.678772,315.522583 
	C294.747528,322.376709 289.693726,320.024994 286.183685,320.482819 
	C282.274994,320.992615 280.922760,319.171051 280.964691,315.344147 
	C281.097412,303.225128 281.225403,291.097229 280.884186,278.986023 
	C280.739746,273.859161 282.554688,271.971344 287.454865,272.632904 
	C289.573853,272.918945 291.701538,273.140930 294.058594,273.960449 
	C294.514648,275.368256 294.737366,276.207642 294.960052,277.046997 
	C295.796021,276.530670 296.631958,276.014313 297.467926,275.497986 
	C298.144531,275.077759 298.821136,274.657532 300.045715,274.001953 
	C301.395905,273.448120 302.198059,273.129608 303.000244,272.811127 
z"/>
<path fill="#095DD0" opacity="1.000000" stroke="none" 
	d="
M336.897430,318.461792 
	C336.479767,318.588043 336.062073,318.714294 334.968506,318.686768 
	C333.313995,318.357819 332.341858,318.123505 331.355896,318.016449 
	C317.919739,316.557037 310.404968,305.410461 311.897247,294.859100 
	C312.406952,291.255035 312.589447,287.604645 312.926636,283.961609 
	C312.931824,283.947784 312.956940,283.937073 313.274780,283.806458 
	C314.310303,282.282959 315.027985,280.890106 315.791718,279.361176 
	C315.837738,279.225067 316.026398,279.008301 316.285767,278.903320 
	C316.925232,278.397278 317.305298,277.996185 317.604065,277.546631 
	C317.522736,277.498138 317.582245,277.318390 317.944031,277.353973 
	C323.526215,275.940796 328.746613,274.492004 334.073853,273.367859 
	C334.912384,274.782501 335.658234,275.863342 336.373108,276.964233 
	C338.566406,280.341949 340.747803,283.727386 342.621521,286.956238 
	C336.556732,282.059418 330.784607,282.295319 326.622864,287.443726 
	C322.881226,292.072449 324.038452,300.703400 328.411011,304.704773 
	C333.021484,308.923889 337.200806,306.365021 341.602600,305.046783 
	C340.790527,306.680237 340.158508,308.174011 339.067688,309.160370 
	C336.344666,311.622589 336.668671,313.176514 339.878296,314.363586 
	C338.706726,315.849365 337.802094,317.155579 336.897430,318.461792 
M317.510132,284.401306 
	C317.567657,284.832520 317.625153,285.263733 317.682678,285.694946 
	C317.950073,285.634583 318.217468,285.574249 318.484863,285.513885 
	C318.258850,285.063599 318.032837,284.613342 317.510132,284.401306 
M332.628052,279.497375 
	C332.142914,279.647614 331.657776,279.797882 331.172638,279.948120 
	C331.331177,280.168671 331.592499,280.597595 331.632507,280.577881 
	C332.067352,280.363342 332.467499,280.078461 332.628052,279.497375 
z"/>
<path fill="#0E9EF3" opacity="1.000000" stroke="none" 
	d="
M460.974701,307.968201 
	C460.973267,296.199707 460.973267,284.924774 460.973267,272.640717 
	C464.800598,272.640717 468.380890,272.391052 471.881744,272.808075 
	C472.810547,272.918732 474.174530,275.071259 474.187744,276.298615 
	C474.330536,289.578461 474.183228,302.861115 474.261261,316.142151 
	C474.280762,319.458527 472.845795,320.623566 469.736755,320.371826 
	C468.417664,320.264984 467.069672,320.251526 465.755951,320.392456 
	C461.976227,320.797974 460.694153,318.975128 460.934845,315.432648 
	C461.092102,313.118744 460.972015,310.786011 460.974701,307.968201 
z"/>
<path fill="#1A97DF" opacity="1.000000" stroke="none" 
	d="
M492.681641,292.584045 
	C494.428955,290.231354 495.956390,288.167297 498.244629,285.075165 
	C491.958160,285.075165 486.913818,285.075165 481.421387,285.075165 
	C481.421387,280.731934 481.421387,277.035065 481.421387,272.926483 
	C492.601929,272.926483 503.662964,272.926483 514.876587,272.926483 
	C516.219177,278.788940 515.474548,283.640045 511.429321,288.303650 
	C506.250824,294.273773 501.772339,300.851074 495.902069,308.607086 
	C502.065643,308.607086 506.785553,308.960876 511.427734,308.511627 
	C516.481995,308.022491 516.300842,311.106689 516.305664,314.409882 
	C516.310486,317.713562 516.497681,320.668793 511.473450,320.457916 
	C502.830933,320.095184 494.156769,320.193787 485.505951,320.445190 
	C481.257812,320.568665 479.465759,318.794983 480.349548,314.904724 
	C481.195770,311.179810 482.243866,307.328613 484.113464,304.052338 
	C486.401215,300.043274 489.636322,296.574860 492.681641,292.584045 
M496.643585,302.926331 
	C498.372101,300.757935 500.084961,298.576843 501.832489,296.423889 
	C505.089722,292.410889 508.705048,288.632965 511.496307,284.320312 
	C512.931641,282.102631 513.350159,278.932495 513.279785,276.217285 
	C513.259155,275.421906 510.004578,274.135834 508.193359,274.064728 
	C501.718872,273.810669 495.217468,273.782867 488.749268,274.116577 
	C486.872894,274.213379 485.073730,275.806641 483.239197,276.713898 
	C485.052673,278.126831 486.674194,280.166168 488.727783,280.795502 
	C491.346619,281.598083 494.337891,281.086853 497.126648,281.457458 
	C500.997833,281.971893 502.662964,284.093628 500.095459,287.575623 
	C494.871979,294.659637 489.224335,301.435577 484.133759,308.609711 
	C482.790741,310.502472 482.357941,313.417267 482.515503,315.795929 
	C482.571167,316.635986 485.615448,317.853149 487.327301,317.908630 
	C494.635834,318.145294 501.956360,318.006470 509.272491,318.016022 
	C512.657104,318.020416 514.385620,315.826843 514.062744,312.993042 
	C513.930786,311.834778 511.124451,310.382538 509.381134,310.131531 
	C505.788422,309.614288 502.041016,310.161713 498.452240,309.629883 
	C494.225281,309.003510 493.548676,306.585388 496.643585,302.926331 
z"/>
<path fill="#0F5BB1" opacity="1.000000" stroke="none" 
	d="
M333.967010,273.043243 
	C328.746613,274.492004 323.526215,275.940796 318.056519,277.122772 
	C318.069794,276.415192 318.332367,275.974426 318.594940,275.533661 
	C325.409912,271.074463 332.453552,269.623993 340.164856,273.389801 
	C341.436493,274.010803 343.337738,273.328979 344.948822,273.271057 
	C349.016510,273.124817 353.087311,272.879791 357.149628,272.977173 
	C357.729095,272.991028 358.757141,274.689636 358.753265,275.605011 
	C358.686890,291.334015 358.864227,307.078979 358.168213,322.784149 
	C357.811737,330.827454 352.145386,335.311432 344.495667,337.063171 
	C345.274536,335.514496 346.142548,334.255402 347.256470,332.994385 
	C347.502380,332.992432 347.994385,332.984802 348.347595,332.994812 
	C349.871155,332.411255 351.041534,331.817688 352.392334,330.914917 
	C353.754059,326.690887 355.722778,322.825165 355.970459,318.852112 
	C356.746002,306.411804 357.001434,293.932465 357.136505,281.464752 
	C357.162109,279.099030 356.355804,275.376617 354.805847,274.634277 
	C351.957458,273.269989 348.224731,272.501343 345.301697,275.971863 
	C344.604828,276.799194 341.994507,276.490082 340.466736,276.030579 
	C338.205231,275.350433 336.124634,274.068787 333.967010,273.043243 
z"/>
<path fill="#1C79C5" opacity="1.000000" stroke="none" 
	d="
M389.899811,290.891602 
	C389.609772,288.856232 390.056976,285.920197 388.885651,284.961426 
	C385.876221,282.498077 381.681030,281.885773 378.857056,284.944885 
	C375.441650,288.644684 371.504425,288.012543 367.430511,287.965485 
	C364.475494,287.931335 363.720764,286.470490 364.391174,283.730530 
	C365.936462,277.414703 370.042236,272.976501 376.143158,272.239929 
	C382.226593,271.505554 388.832336,271.765564 394.698425,273.410614 
	C401.932251,275.439240 404.131775,282.160309 404.492950,289.468506 
	C403.846191,289.452484 403.474854,289.153351 403.057129,288.496826 
	C398.079895,273.192993 391.287140,271.937378 377.893677,273.347748 
	C375.413269,273.608948 372.845245,275.874481 370.989136,277.846863 
	C370.235413,278.647797 370.706970,282.092346 371.629303,282.641937 
	C373.134125,283.538605 375.732056,283.700562 377.398132,283.020111 
	C382.356598,280.995056 387.088531,279.638794 391.956116,283.414734 
	C392.282806,284.468079 392.573120,285.218689 392.875244,286.360840 
	C392.911530,287.535492 392.936035,288.318573 392.941162,289.363159 
	C392.905548,289.971893 392.889313,290.319092 392.805481,290.720337 
	C392.737915,290.774384 392.617523,290.898712 392.276520,290.902832 
	C391.256958,290.901825 390.578369,290.896729 389.899811,290.891602 
M367.693634,284.261078 
	C367.981262,283.549011 368.268890,282.836945 368.556549,282.124908 
	C368.140411,282.015656 367.724304,281.906372 367.308167,281.797119 
	C367.267944,282.569977 367.227722,283.342804 367.693634,284.261078 
z"/>
<path fill="#0663D9" opacity="1.000000" stroke="none" 
	d="
M347.010559,332.996338 
	C346.142548,334.255402 345.274536,335.514496 344.189087,337.026886 
	C343.971649,337.280182 343.774933,337.381500 343.250732,337.279449 
	C340.827667,337.642334 338.928802,338.107269 337.029968,338.572235 
	C334.673004,338.618225 332.316071,338.664215 329.512634,338.445526 
	C329.066162,338.180817 328.922974,337.935089 328.790771,337.765289 
	C328.457947,337.387512 328.237152,337.203857 327.675171,337.019592 
	C326.925690,336.969269 326.497192,336.943848 325.823730,336.788269 
	C324.718262,336.757538 323.857788,336.856964 322.997284,336.956390 
	C322.766174,336.952332 322.535034,336.948303 321.969299,336.916870 
	C321.634674,336.889465 321.672607,336.846741 321.672607,336.846741 
	C321.543213,336.715942 321.413818,336.585144 321.160034,335.970947 
	C321.035645,335.487549 321.020386,334.991119 320.867645,334.713684 
	C319.811523,333.950806 318.908173,333.465363 317.957306,332.644012 
	C317.858704,331.857574 317.807617,331.407013 318.140015,330.920044 
	C321.955780,329.663696 326.580353,332.594757 329.343506,327.888062 
	C330.129425,327.915558 330.578583,327.927673 331.291565,328.109344 
	C332.722534,328.157135 333.889740,328.035370 335.421234,327.928040 
	C336.515778,327.951080 337.246063,327.959656 338.325195,327.953369 
	C339.786163,327.298828 340.898285,326.659088 342.268402,326.014343 
	C342.698425,326.007355 342.870422,326.005341 343.289978,326.123596 
	C344.695221,328.494690 345.852905,330.745514 347.010559,332.996338 
z"/>
<path fill="#1385D8" opacity="1.000000" stroke="none" 
	d="
M389.574524,290.897491 
	C390.578369,290.896729 391.256958,290.901825 392.239563,291.119873 
	C388.969788,293.723053 391.781799,296.311127 392.576477,298.546478 
	C394.787018,304.764374 392.582123,311.210663 387.274628,312.964386 
	C382.520935,314.535156 374.726349,310.163391 373.269318,304.724426 
	C374.731049,301.180969 379.092133,299.008942 377.222168,294.323608 
	C381.000458,293.142090 384.495239,292.175018 387.989990,291.207886 
	C388.409760,291.106384 388.829498,291.004883 389.574524,290.897491 
M378.792175,301.926514 
	C376.414490,303.885864 375.294830,306.128021 377.896179,308.629700 
	C381.560791,312.153992 389.864044,309.680542 391.114624,304.754059 
	C391.924561,301.563324 391.351959,299.362457 387.312592,300.072144 
	C384.694305,300.532196 382.084442,301.040497 378.792175,301.926514 
z"/>
<path fill="#084CC4" opacity="1.000000" stroke="none" 
	d="
M68.999992,222.001587 
	C66.887146,222.127609 64.774300,222.253616 62.356876,222.241730 
	C62.748825,221.699432 63.445351,221.295059 64.779648,220.877991 
	C66.611603,220.451736 67.805786,220.038177 68.999962,219.624603 
	C73.802238,219.440247 78.604446,219.099579 83.406815,219.097244 
	C111.624763,219.083588 139.842758,219.148849 168.760529,219.366364 
	C169.978333,219.734192 170.496353,219.923187 171.014359,220.112167 
	C167.971329,220.408615 164.928314,220.705063 160.974609,221.001678 
	C133.707703,221.004303 107.351479,221.006744 80.540176,221.007172 
	C76.390060,221.337311 72.695030,221.669449 68.999992,222.001587 
z"/>
<path fill="#1A97DF" opacity="1.000000" stroke="none" 
	d="
M460.008392,258.380524 
	C462.559143,252.688736 467.161804,250.738220 471.657135,253.068909 
	C475.283386,254.949005 476.650604,259.684387 474.603119,263.367401 
	C472.574432,267.016724 469.211670,267.774353 465.578857,266.886230 
	C461.537781,265.898285 459.371429,263.185333 460.008392,258.380524 
z"/>
<path fill="#05102D" opacity="1.000000" stroke="none" 
	d="
M36.998405,329.638123 
	C36.884323,331.528717 36.770813,332.977631 36.657303,334.426514 
	C36.322811,334.418976 35.988323,334.411438 35.653831,334.403900 
	C35.653831,303.804718 35.653831,273.205505 35.653831,242.606308 
	C36.102215,242.598938 36.550598,242.591568 36.998981,242.584198 
	C36.998981,271.454926 36.998981,300.325653 36.998405,329.638123 
z"/>
<path fill="#0F94E6" opacity="1.000000" stroke="none" 
	d="
M412.012970,314.009399 
	C413.058685,314.832581 414.021149,316.188568 415.167511,316.367737 
	C417.532410,316.737244 419.995422,316.478973 423.218018,316.478973 
	C423.218018,311.477112 423.218018,306.745392 423.345825,301.657623 
	C423.585938,306.117401 423.672363,310.933990 423.819550,315.748718 
	C423.921112,319.071442 422.548859,320.741791 419.057129,320.385529 
	C417.739624,320.251129 416.382568,320.229828 415.069336,320.380890 
	C411.620544,320.777618 410.236511,319.315216 410.263458,315.867981 
	C410.357178,303.884399 410.311554,291.899658 410.460571,279.472351 
	C410.762360,281.733429 410.999329,284.435608 411.068542,287.142059 
	C411.290955,295.842255 411.451447,304.544006 411.817444,313.622070 
	C411.999084,313.998932 412.012970,314.009399 412.012970,314.009399 
z"/>
<path fill="#0F5BB1" opacity="1.000000" stroke="none" 
	d="
M312.921448,283.975433 
	C312.589447,287.604645 312.406952,291.255035 311.897247,294.859100 
	C310.404968,305.410461 317.919739,316.557037 331.355896,318.016449 
	C332.341858,318.123505 333.313995,318.357819 334.638184,318.678101 
	C321.076111,320.956879 311.926056,313.799469 310.469604,299.527191 
	C310.184174,296.730011 310.323120,293.889496 310.426147,290.316895 
	C311.364471,287.701721 312.142975,285.838562 312.921448,283.975433 
z"/>
<path fill="#1059C0" opacity="1.000000" stroke="none" 
	d="
M329.006775,327.872620 
	C326.580353,332.594757 321.955780,329.663696 317.896851,330.734497 
	C314.887695,328.656555 312.549164,326.708618 314.026215,323.105774 
	C314.462250,323.050598 314.898254,322.995422 315.954437,323.143555 
	C318.034302,323.219360 319.493988,323.091858 320.953705,322.964355 
	C321.725586,322.932800 322.497467,322.901245 323.781525,323.235077 
	C325.864716,325.024536 327.435730,326.448578 329.006775,327.872620 
z"/>
<path fill="#031B4B" opacity="1.000000" stroke="none" 
	d="
M312.926636,283.961609 
	C312.142975,285.838562 311.364471,287.701721 310.410614,289.861115 
	C307.987579,289.043762 305.739929,287.930145 303.253723,286.590546 
	C309.902344,283.893890 309.902344,283.893890 310.197601,274.436798 
	C311.100739,275.006409 311.919922,276.021118 312.600372,276.863983 
	C314.470398,276.337585 316.152588,275.864075 318.214844,275.462128 
	C318.332367,275.974426 318.069794,276.415192 317.694733,277.087189 
	C317.582245,277.318390 317.522736,277.498138 317.322021,277.612122 
	C316.756348,278.153503 316.391357,278.580902 316.026367,279.008301 
	C316.026398,279.008301 315.837738,279.225067 315.506165,279.549866 
	C314.435364,281.228790 313.696167,282.582947 312.956970,283.937073 
	C312.956940,283.937073 312.931824,283.947784 312.926636,283.961609 
z"/>
<path fill="#1C79C5" opacity="1.000000" stroke="none" 
	d="
M404.716675,313.008179 
	C404.312347,315.309174 404.175323,319.491608 403.458618,319.593445 
	C399.897552,320.099304 396.183472,319.534271 392.523834,319.337341 
	C390.972229,319.253876 389.421814,319.148163 387.601166,318.835052 
	C387.573914,318.125000 387.816376,317.632446 388.237274,316.914276 
	C389.811676,316.522095 391.616425,315.711151 392.536469,316.294769 
	C398.001526,319.761444 399.448517,319.593018 403.406250,314.098022 
	C403.970459,313.633026 404.343567,313.320618 404.716675,313.008179 
z"/>
<path fill="#1C79C5" opacity="1.000000" stroke="none" 
	d="
M387.552979,291.151306 
	C384.495239,292.175018 381.000458,293.142090 376.910156,294.353943 
	C374.871094,294.751678 373.427521,294.904663 371.728760,295.124725 
	C371.030060,295.461273 370.586578,295.730774 370.069580,296.249268 
	C369.951965,296.665619 369.907837,296.832977 369.593231,297.144867 
	C368.211670,298.185669 367.100616,299.081940 365.814758,300.305237 
	C365.166748,303.112457 364.693512,305.592590 363.981506,308.071442 
	C363.742737,308.070129 363.265900,308.044037 363.265900,308.044037 
	C362.519745,299.842529 365.935364,294.890228 373.834564,293.212433 
	C378.214050,292.282227 382.685822,291.786377 387.552979,291.151306 
z"/>
<path fill="#0F94E6" opacity="1.000000" stroke="none" 
	d="
M404.780334,312.542175 
	C404.343567,313.320618 403.970459,313.633026 403.349487,313.605957 
	C403.102295,305.129028 403.102936,296.991608 403.103546,288.854187 
	C403.474854,289.153351 403.846191,289.452484 404.424011,289.871307 
	C404.701691,297.352692 404.772858,304.714417 404.780334,312.542175 
z"/>
<path fill="#0F5BB1" opacity="1.000000" stroke="none" 
	d="
M337.254211,318.399597 
	C337.802094,317.155579 338.706726,315.849365 340.208710,314.243164 
	C343.602600,312.719788 345.283661,313.557343 345.569244,316.650665 
	C345.761139,318.729187 345.775177,320.824158 345.663391,322.819275 
	C345.035736,322.575714 344.613525,322.424591 344.101379,322.155945 
	C344.011444,322.038422 343.831360,321.803558 343.831360,321.803558 
	C344.276337,316.024994 343.940308,315.837738 337.254211,318.399597 
z"/>
<path fill="#1C79C5" opacity="1.000000" stroke="none" 
	d="
M376.002228,320.991058 
	C368.988007,320.388306 365.398468,317.420868 363.769806,310.332611 
	C364.283997,310.028442 364.556183,310.067261 364.913513,310.418579 
	C365.674286,311.834991 366.350281,312.936279 367.234680,314.286072 
	C369.274658,316.006622 371.106140,317.478638 372.968445,318.976013 
	C372.999207,319.001373 373.064514,319.047119 373.280884,319.215332 
	C374.003967,319.590881 374.510651,319.798218 375.231140,320.053345 
	C375.444916,320.101135 375.869904,320.207611 375.902344,320.403564 
	C375.934784,320.599548 376.002228,320.991058 376.002228,320.991058 
z"/>
<path fill="#0F5BB1" opacity="1.000000" stroke="none" 
	d="
M313.794586,323.040283 
	C312.549164,326.708618 314.887695,328.656555 317.513397,330.770935 
	C317.807617,331.407013 317.858704,331.857574 317.949310,332.909424 
	C317.979065,333.687408 317.969299,333.864075 317.959534,334.040771 
	C316.040710,331.509979 313.948700,329.082733 312.328491,326.373383 
	C311.937866,325.720154 313.109680,324.132599 313.794586,323.040283 
z"/>
<path fill="#1385D8" opacity="1.000000" stroke="none" 
	d="
M376.364258,321.076599 
	C376.002228,320.991058 375.934784,320.599548 376.279785,320.363068 
	C378.548828,319.757874 381.507996,320.885437 381.482605,317.064575 
	C383.965698,317.087433 386.012268,317.113647 388.058838,317.139862 
	C387.816376,317.632446 387.573914,318.125000 387.236816,318.874695 
	C387.142212,319.131866 387.122772,319.081573 386.881592,319.127930 
	C386.102234,319.533844 385.564026,319.893433 385.025848,320.252991 
	C382.259308,320.556061 379.492798,320.859131 376.364258,321.076599 
z"/>
<path fill="#0F5BB1" opacity="1.000000" stroke="none" 
	d="
M329.343506,327.888062 
	C327.435730,326.448578 325.864716,325.024536 324.162750,323.308289 
	C326.462341,324.284546 328.892883,325.552948 331.491028,327.109009 
	C331.458221,327.589111 331.247925,327.770172 331.027771,327.939789 
	C330.578583,327.927673 330.129425,327.915558 329.343506,327.888062 
z"/>
<path fill="#084CC4" opacity="1.000000" stroke="none" 
	d="
M181.601700,222.045380 
	C181.348816,222.935181 180.770584,223.690674 180.094147,224.716400 
	C178.735535,223.481598 177.475143,221.976562 176.140488,220.185455 
	C177.802933,220.569946 179.539642,221.240509 181.601700,222.045380 
z"/>
<path fill="#0F5BB1" opacity="1.000000" stroke="none" 
	d="
M337.302246,338.696472 
	C338.928802,338.107269 340.827667,337.642334 343.144226,337.249390 
	C341.566162,337.821167 339.570343,338.320923 337.302246,338.696472 
z"/>
<path fill="#0F94E6" opacity="1.000000" stroke="none" 
	d="
M423.666046,294.652649 
	C423.524628,293.391174 423.517365,291.792694 423.778564,290.109863 
	C423.964783,291.455536 423.882477,292.885620 423.666046,294.652649 
z"/>
<path fill="#0F5BB1" opacity="1.000000" stroke="none" 
	d="
M343.042450,326.003357 
	C342.870422,326.005341 342.698425,326.007355 341.862030,325.936035 
	C340.927277,325.808075 340.656891,325.753448 340.386536,325.698792 
	C341.365723,324.532654 342.344879,323.366516 343.577698,322.001953 
	C343.831360,321.803558 344.011444,322.038422 344.057678,322.436584 
	C344.071167,323.215973 344.038422,323.597168 343.840149,324.207825 
	C343.463867,324.959320 343.253174,325.481323 343.042450,326.003357 
z"/>
<path fill="#0F5BB1" opacity="1.000000" stroke="none" 
	d="
M320.651917,322.886261 
	C319.493988,323.091858 318.034302,323.219360 316.283203,323.180603 
	C317.444550,322.945618 318.897339,322.876892 320.651917,322.886261 
z"/>
<path fill="#031B4B" opacity="1.000000" stroke="none" 
	d="
M297.180817,275.304626 
	C296.631958,276.014313 295.796021,276.530670 294.960052,277.046997 
	C294.737366,276.207642 294.514648,275.368256 294.364258,274.209351 
	C295.255615,274.296936 296.074677,274.704102 297.180817,275.304626 
z"/>
<path fill="#0244C4" opacity="1.000000" stroke="none" 
	d="
M131.368317,366.658112 
	C131.587845,365.732788 132.213898,364.881805 132.839966,364.030823 
	C133.517929,364.660828 134.195862,365.290833 134.971680,366.250458 
	C133.971313,366.630859 132.873093,366.681671 131.368317,366.658112 
z"/>
<path fill="#0F94E6" opacity="1.000000" stroke="none" 
	d="
M423.730682,277.256042 
	C423.324219,276.320160 422.639313,275.161438 421.965973,273.658447 
	C422.469086,274.553864 422.960663,275.793549 423.730682,277.256042 
z"/>
<path fill="#1059C0" opacity="1.000000" stroke="none" 
	d="
M340.084717,325.805115 
	C340.656891,325.753448 340.927277,325.808075 341.604034,325.941040 
	C340.898285,326.659088 339.786163,327.298828 338.345764,327.762146 
	C338.050781,327.330780 338.072876,327.074860 338.083771,326.817963 
	C338.650146,326.515778 339.216522,326.213593 340.084717,325.805115 
z"/>
<path fill="#0F94E6" opacity="1.000000" stroke="none" 
	d="
M425.128235,288.315552 
	C425.604218,287.387970 426.282654,286.275299 427.229736,285.064453 
	C426.775818,286.020996 426.053253,287.075714 425.128235,288.315552 
z"/>
<path fill="#0F5BB1" opacity="1.000000" stroke="none" 
	d="
M326.068695,336.918427 
	C326.497192,336.943848 326.925690,336.969269 327.822632,337.175598 
	C328.497101,337.554352 328.707733,337.747223 328.922974,337.935089 
	C328.922974,337.935089 329.066162,338.180817 329.088531,338.321350 
	C327.724243,338.242676 326.337616,338.023438 325.086121,337.477783 
	C325.503754,337.073700 325.786224,336.996063 326.068695,336.918427 
z"/>
<path fill="#1059C0" opacity="1.000000" stroke="none" 
	d="
M331.291565,328.109344 
	C331.247925,327.770172 331.458221,327.589111 331.799530,327.243164 
	C332.716675,327.064911 333.492920,327.040039 334.655029,327.266632 
	C335.040894,327.518097 335.056946,327.913605 335.056946,327.913605 
	C333.889740,328.035370 332.722534,328.157135 331.291565,328.109344 
z"/>
<path fill="#1059C0" opacity="1.000000" stroke="none" 
	d="
M318.131653,334.249664 
	C317.969299,333.864075 317.979065,333.687408 317.996826,333.245361 
	C318.908173,333.465363 319.811523,333.950806 320.552429,334.737122 
	C320.181213,335.063202 319.972412,335.088470 319.763611,335.113770 
	C319.276978,334.895355 318.790375,334.676941 318.131653,334.249664 
z"/>
<path fill="#07369B" opacity="1.000000" stroke="none" 
	d="
M68.675438,219.524658 
	C67.805786,220.038177 66.611603,220.451736 65.085968,220.843506 
	C65.953316,220.356049 67.152115,219.890366 68.675438,219.524658 
z"/>
<path fill="#031B4B" opacity="1.000000" stroke="none" 
	d="
M302.755066,272.704651 
	C302.198059,273.129608 301.395905,273.448120 300.272308,273.805389 
	C300.803894,273.428833 301.656891,273.013519 302.755066,272.704651 
z"/>
<path fill="#0F5BB1" opacity="1.000000" stroke="none" 
	d="
M335.421234,327.928040 
	C335.056946,327.913605 335.040894,327.518097 335.039764,327.320160 
	C335.851166,326.977905 336.663666,326.833557 337.779968,326.753601 
	C338.072876,327.074860 338.050781,327.330780 337.996887,327.776978 
	C337.246063,327.959656 336.515778,327.951080 335.421234,327.928040 
z"/>
<path fill="#1C79C5" opacity="1.000000" stroke="none" 
	d="
M385.282288,320.244568 
	C385.564026,319.893433 386.102234,319.533844 386.891724,319.150177 
	C386.608246,319.496124 386.073517,319.866119 385.282288,320.244568 
z"/>
<path fill="#0F94E6" opacity="1.000000" stroke="none" 
	d="
M410.783630,273.574890 
	C410.958527,274.318817 410.890961,275.247162 410.717407,276.426697 
	C410.587982,275.705017 410.564545,274.732147 410.783630,273.574890 
z"/>
<path fill="#1385D8" opacity="1.000000" stroke="none" 
	d="
M364.828766,310.103485 
	C364.556183,310.067261 364.283997,310.028442 363.806763,309.978271 
	C363.467133,309.549286 363.332916,309.129089 363.232300,308.376465 
	C363.265900,308.044037 363.742737,308.070129 364.102905,308.306458 
	C364.584961,309.063019 364.706879,309.583252 364.828766,310.103485 
z"/>
<path fill="#07369B" opacity="1.000000" stroke="none" 
	d="
M171.193069,219.976837 
	C170.496353,219.923187 169.978333,219.734192 169.227875,219.397919 
	C169.758224,219.186417 170.521057,219.122192 171.658997,219.149658 
	C171.836868,219.467361 171.616089,219.667419 171.193069,219.976837 
z"/>
<path fill="#031B4B" opacity="1.000000" stroke="none" 
	d="
M307.580353,272.291443 
	C307.115448,272.498383 306.441956,272.596039 305.432037,272.622131 
	C305.854309,272.427765 306.613068,272.304993 307.580353,272.291443 
z"/>
<path fill="#1059C0" opacity="1.000000" stroke="none" 
	d="
M325.823730,336.788269 
	C325.786224,336.996063 325.503754,337.073700 324.798676,337.274384 
	C324.037170,337.440002 323.712158,337.390839 323.199158,337.103149 
	C323.857788,336.856964 324.718262,336.757538 325.823730,336.788269 
z"/>
<path fill="#07369B" opacity="1.000000" stroke="none" 
	d="
M175.919449,219.582977 
	C175.607040,219.722687 175.068130,219.695541 174.288483,219.541840 
	C174.596146,219.415573 175.144547,219.415848 175.919449,219.582977 
z"/>
<path fill="#031B4B" opacity="1.000000" stroke="none" 
	d="
M315.500427,273.491333 
	C315.488892,273.490997 315.511932,273.491699 315.500427,273.491333 
z"/>
<path fill="#0F5BB1" opacity="1.000000" stroke="none" 
	d="
M321.655640,336.929474 
	C321.672607,336.846741 321.634674,336.889465 321.627258,336.860229 
	C321.619812,336.830994 321.588989,337.081665 321.588989,337.081665 
	C321.588989,337.081665 321.638641,337.012207 321.655640,336.929474 
z"/>
<path fill="#0F5BB1" opacity="1.000000" stroke="none" 
	d="
M319.912048,335.332458 
	C319.972412,335.088470 320.181213,335.063202 320.705200,335.014526 
	C321.020386,334.991119 321.035645,335.487549 321.017029,335.734924 
	C320.685791,335.838593 320.373138,335.694885 319.912048,335.332458 
z"/>
<path fill="#5FCCFB" opacity="1.000000" stroke="none" 
	d="
M176.899734,273.442810 
	C176.915771,275.285950 176.931808,277.129120 176.621857,279.585999 
	C171.074921,285.768890 165.853989,291.338074 160.445892,296.987915 
	C160.258743,297.068542 159.975082,297.361237 159.863388,297.452332 
	C159.594360,297.771973 159.568268,298.006805 159.403275,298.534119 
	C157.626678,300.547028 156.120224,302.273773 154.285736,304.044830 
	C152.220047,305.410309 150.482376,306.731506 148.457397,308.178040 
	C144.269638,312.332886 140.348267,316.342407 136.473114,320.396088 
	C128.485367,328.751862 127.339989,328.870056 118.143639,322.145172 
	C117.886787,321.957336 117.536125,321.897858 117.140099,321.785889 
	C117.050980,321.793274 117.065094,321.971558 117.020721,321.695862 
	C116.660713,321.259521 116.345078,321.098938 116.091988,320.957581 
	C116.154533,320.976807 116.193336,320.851807 116.132263,320.546875 
	C115.386360,319.498413 114.701530,318.754883 114.019379,317.995575 
	C114.022064,317.979767 113.990059,317.982117 113.851219,317.739105 
	C113.157669,317.009766 112.602966,316.523438 111.892738,315.737793 
	C107.714737,310.903198 103.692268,306.367981 99.732216,301.454681 
	C99.932884,300.070068 100.071129,299.063568 100.448364,297.854858 
	C100.596275,296.913910 100.505196,296.175201 100.403770,295.605591 
	C100.393417,295.774750 100.731766,295.794678 101.100227,295.827332 
	C108.587158,292.461578 110.421486,292.789551 116.212692,298.496185 
	C127.558426,309.676239 127.558426,309.676239 138.263229,296.818756 
	C138.302200,296.391846 138.254745,296.219238 138.187302,296.098083 
	C138.167313,296.149536 138.264664,296.201660 138.604523,296.172180 
	C142.271286,292.850861 145.598190,289.559052 149.236694,286.117432 
	C151.113708,284.304993 152.679108,282.642395 154.529816,280.847321 
	C157.638687,277.963531 160.415878,275.162537 163.296021,272.471771 
	C168.467163,267.640656 172.254288,267.939606 176.899734,273.442810 
z"/>
<path fill="#0465E5" opacity="1.000000" stroke="none" 
	d="
M154.613770,304.000519 
	C156.120224,302.273773 157.626678,300.547028 159.421188,298.445435 
	C159.805786,297.837158 159.894409,297.600708 159.975082,297.361237 
	C159.975082,297.361237 160.258743,297.068542 160.819855,296.939331 
	C163.647629,295.266876 165.989059,293.821259 168.162735,292.156586 
	C171.131653,289.882935 173.972870,287.442566 176.868835,285.073669 
	C176.891449,301.157684 176.932861,317.241669 176.930435,333.325684 
	C176.928635,345.153137 164.742706,352.120300 153.893066,345.650177 
	C153.693405,342.353546 153.713959,339.808868 153.820129,336.783813 
	C153.855637,331.790100 153.805542,327.276794 153.716934,322.311768 
	C153.990219,315.906860 154.302002,309.953705 154.613770,304.000519 
z"/>
<path fill="#0881F0" opacity="1.000000" stroke="none" 
	d="
M66.748810,321.450439 
	C66.556664,314.633881 66.424271,308.283966 66.623573,301.588989 
	C74.215088,301.302856 81.474907,301.361725 88.818710,301.659424 
	C89.211212,302.297760 89.519745,302.697266 89.846664,303.559021 
	C89.863312,309.507263 89.769966,314.995117 89.880424,320.478882 
	C90.064163,329.601227 90.378639,338.720917 90.638054,347.841736 
	C86.644249,347.814087 82.638054,347.976532 78.659332,347.717346 
	C71.430161,347.246399 67.115028,342.625702 66.939522,335.398224 
	C66.830444,330.906067 66.847900,326.410858 66.748810,321.450439 
z"/>
<path fill="#107FEF" opacity="1.000000" stroke="none" 
	d="
M99.669800,301.832764 
	C103.692268,306.367981 107.714737,310.903198 112.005264,316.000305 
	C112.845558,317.035522 113.417809,317.508820 113.990051,317.982117 
	C113.990059,317.982117 114.022064,317.979767 114.071457,318.314758 
	C114.811684,319.383789 115.502510,320.117798 116.193336,320.851807 
	C116.193336,320.851807 116.154533,320.976807 116.253548,321.140625 
	C116.575928,321.541901 116.813438,321.764282 117.065094,321.971558 
	C117.065094,321.971558 117.050980,321.793274 117.154312,322.157898 
	C119.279610,328.353790 124.073868,328.332977 128.985321,328.497772 
	C129.271393,331.042450 129.408081,333.196381 129.860153,335.281952 
	C131.212006,341.518555 130.993500,342.189026 124.784653,344.181549 
	C120.895393,345.429688 116.855583,346.208710 112.883331,347.198242 
	C106.798767,347.241669 100.714203,347.285095 94.406609,346.813965 
	C94.432304,344.006958 94.882828,341.715729 94.896103,339.421997 
	C94.967369,327.113983 94.929764,314.805359 94.929764,301.832764 
	C96.821159,301.832764 98.245483,301.832764 99.669800,301.832764 
M96.613617,345.645660 
	C96.564247,345.663116 96.514877,345.680573 96.613617,345.645660 
z"/>
<path fill="#032066" opacity="1.000000" stroke="none" 
	d="
M154.244507,280.979797 
	C152.679108,282.642395 151.113708,284.304993 149.220108,285.629303 
	C148.855255,279.819031 148.475830,274.321259 148.884964,268.882843 
	C149.244705,264.100677 147.786606,262.485626 142.887360,262.590179 
	C129.460907,262.876740 116.024254,262.677124 102.591652,262.688049 
	C95.302811,262.694000 95.302826,262.710602 94.582382,269.762634 
	C91.987350,267.079437 91.236656,269.414978 90.113464,270.541626 
	C89.804733,262.824402 89.804741,262.796753 82.661926,262.794800 
	C77.405235,262.793335 72.148521,262.876190 66.704987,262.841431 
	C66.518143,262.761353 66.113754,262.719513 65.865463,262.624908 
	C65.442978,262.498016 65.268799,262.465759 65.134453,262.204254 
	C65.175522,261.662292 65.131905,261.355957 65.129303,260.963837 
	C65.215172,260.871674 65.299225,260.402893 65.297249,260.018372 
	C65.285378,259.377747 65.275490,259.121582 65.618286,258.639069 
	C68.057060,257.991180 70.130638,257.303223 72.231873,257.204620 
	C76.380287,257.009979 80.551071,256.989868 84.699356,257.182648 
	C88.588272,257.363434 90.147095,255.764603 89.932381,251.902710 
	C89.748116,248.588287 89.692841,245.226044 90.073036,241.941971 
	C90.214226,240.722504 91.755661,239.665161 92.658546,238.533875 
	C93.435783,239.625809 94.787247,240.669434 94.883957,241.818634 
	C95.189766,245.452744 95.084679,249.127274 95.025192,252.784348 
	C94.979027,255.622162 96.064240,257.134308 99.092461,257.125061 
	C114.058945,257.079407 129.025604,257.090820 143.992203,257.088867 
	C146.837036,257.088470 148.286896,255.808731 148.216217,252.843353 
	C148.140961,249.685806 148.336243,246.519485 148.198990,243.366348 
	C148.048248,239.903641 149.205917,237.879013 153.000381,238.175354 
	C153.142227,238.396286 153.313492,238.591431 153.648376,239.344543 
	C153.774948,244.255341 153.807480,248.582962 153.745682,252.909225 
	C153.703766,255.843903 155.001358,257.146942 157.981110,257.028717 
	C161.635040,256.883728 165.296997,256.941071 168.955475,256.910919 
	C169.415405,256.932800 169.875320,256.954651 170.921066,256.982269 
	C171.506882,256.988007 171.994461,256.975098 171.994461,256.975098 
	C172.773300,257.785675 173.552139,258.596222 174.363678,260.039001 
	C174.177689,261.411804 173.959000,262.152374 173.740295,262.892914 
	C173.050613,262.978149 172.360916,263.063416 170.885269,263.131073 
	C167.078232,263.098328 164.057175,263.083160 161.036102,263.067993 
	C160.584396,263.031219 160.132690,262.994476 158.928284,262.963043 
	C151.610565,262.956024 154.688675,267.967590 153.986252,271.009552 
	C153.912048,271.752960 153.837860,272.496368 153.683899,273.940399 
	C153.817581,276.753937 154.031052,278.866882 154.244507,280.979797 
M121.499969,261.013245 
	C128.825699,261.013245 136.151413,261.013245 143.477142,261.013245 
	C143.463287,260.503601 143.449417,259.993958 143.435562,259.484314 
	C128.477570,259.484314 113.519600,259.484314 98.561615,259.484314 
	C98.547981,259.993988 98.534348,260.503662 98.520714,261.013336 
	C105.847153,261.013336 113.173599,261.013336 121.499969,261.013245 
M89.863960,258.958527 
	C90.868988,260.127228 91.874016,261.295959 92.879036,262.464661 
	C93.403969,261.906647 93.928902,261.348602 94.453842,260.790588 
	C93.082169,260.039276 91.710495,259.287964 89.863960,258.958527 
z"/>
<path fill="#0443BC" opacity="1.000000" stroke="none" 
	d="
M152.906097,237.840851 
	C149.205917,237.879013 148.048248,239.903641 148.198990,243.366348 
	C148.336243,246.519485 148.140961,249.685806 148.216217,252.843353 
	C148.286896,255.808731 146.837036,257.088470 143.992203,257.088867 
	C129.025604,257.090820 114.058945,257.079407 99.092461,257.125061 
	C96.064240,257.134308 94.979027,255.622162 95.025192,252.784348 
	C95.084679,249.127274 95.189766,245.452744 94.883957,241.818634 
	C94.787247,240.669434 93.435783,239.625809 92.658546,238.533875 
	C91.755661,239.665161 90.214226,240.722504 90.073036,241.941971 
	C89.692841,245.226044 89.748116,248.588287 89.932381,251.902710 
	C90.147095,255.764603 88.588272,257.363434 84.699356,257.182648 
	C80.551071,256.989868 76.380287,257.009979 72.231873,257.204620 
	C70.130638,257.303223 68.057060,257.991180 65.472382,258.460205 
	C66.236038,257.681152 67.435432,256.288666 68.773010,256.140076 
	C72.046722,255.776367 75.397148,256.148987 78.689751,255.886795 
	C79.998863,255.782547 81.695801,255.117828 82.415733,254.126785 
	C84.146996,251.743637 82.800591,242.765549 80.722969,240.544876 
	C76.791458,236.342728 77.420906,229.828461 82.131721,226.736252 
	C83.078323,226.114914 84.260582,225.852570 85.487358,225.363678 
	C83.075127,223.025330 82.035194,222.017258 80.995270,221.009186 
	C107.351479,221.006744 133.707703,221.004303 160.532715,221.002991 
	C158.914215,221.671005 156.832733,222.894211 154.738693,222.916061 
	C139.086868,223.079437 123.429672,222.833252 107.780556,223.096313 
	C102.099144,223.191818 96.435181,224.325699 89.524231,225.130005 
	C90.901039,228.649323 91.131927,231.652634 92.732384,232.903168 
	C98.904778,237.726059 98.470444,244.253952 97.842583,250.684067 
	C97.411880,255.094986 98.933029,256.128998 103.001190,256.064758 
	C115.154633,255.872696 127.314232,255.895676 139.468811,256.046112 
	C143.556900,256.096710 144.925217,254.514893 145.123337,250.465378 
	C145.329941,246.242203 146.139938,241.929108 147.483582,237.922775 
	C148.386856,235.229416 150.732529,233.837036 152.906097,237.840851 
M84.458450,238.652603 
	C85.912354,238.133072 87.539223,237.850220 88.734421,236.976715 
	C89.207977,236.630630 89.100380,234.354568 88.592865,234.044357 
	C87.626564,233.453690 85.350525,233.160843 85.093712,233.602417 
	C84.342247,234.894501 84.316399,236.608612 84.458450,238.652603 
z"/>
<path fill="#1276EB" opacity="1.000000" stroke="none" 
	d="
M113.255707,347.335571 
	C116.855583,346.208710 120.895393,345.429688 124.784653,344.181549 
	C130.993500,342.189026 131.212006,341.518555 129.860153,335.281952 
	C129.408081,333.196381 129.271393,331.042450 129.302002,328.334106 
	C131.900681,326.177216 134.170975,324.580627 136.478867,323.040405 
	C140.517395,320.345154 144.579010,317.684479 148.695267,315.473206 
	C148.876053,326.292786 148.992523,336.648529 149.108978,347.004272 
	C137.282013,347.160461 125.455055,347.316681 113.255707,347.335571 
z"/>
<path fill="#031D5A" opacity="1.000000" stroke="none" 
	d="
M99.732216,301.454681 
	C98.245483,301.832764 96.821159,301.832764 94.929764,301.832764 
	C94.929764,314.805359 94.967369,327.113983 94.896103,339.421997 
	C94.882828,341.715729 94.432304,344.006958 94.010719,346.698181 
	C92.935013,347.286682 92.032173,347.476349 90.883698,347.753876 
	C90.378639,338.720917 90.064163,329.601227 89.880424,320.478882 
	C89.769966,314.995117 89.863312,309.507263 89.874374,303.269867 
	C89.500710,302.152527 89.117722,301.786560 88.734726,301.420593 
	C81.474907,301.361725 74.215088,301.302856 66.490776,301.277710 
	C66.005745,300.171570 65.985207,299.031708 66.265366,297.409821 
	C66.566063,296.927765 67.022659,296.738525 67.281227,296.757996 
	C67.709854,296.746521 67.879921,296.715576 68.488434,296.748840 
	C72.322090,296.653839 75.717316,296.494629 79.395233,296.369995 
	C80.057251,296.399017 80.436569,296.393402 81.040550,296.502655 
	C81.911789,296.528046 82.558372,296.438599 83.569748,296.361755 
	C84.907440,296.352448 85.880333,296.330597 87.092804,296.415039 
	C88.107872,296.355316 88.883385,296.189240 89.757568,295.995483 
	C89.856247,295.967804 90.060806,295.954926 90.228683,295.737915 
	C90.601646,295.010590 90.806732,294.500305 91.372978,293.995056 
	C92.697487,293.991211 93.660835,293.982269 94.757355,294.348816 
	C95.319832,295.374390 95.749138,296.024445 96.421700,296.854950 
	C97.846428,297.375946 99.027901,297.716492 100.209381,298.057037 
	C100.071129,299.063568 99.932884,300.070068 99.732216,301.454681 
z"/>
<path fill="#031D5A" opacity="1.000000" stroke="none" 
	d="
M149.064087,347.018860 
	C148.992523,336.648529 148.876053,326.292786 148.785889,315.046295 
	C148.789719,312.121277 148.767212,310.086975 148.744720,308.052704 
	C150.482376,306.731506 152.220047,305.410309 154.285736,304.044830 
	C154.302002,309.953705 153.990219,315.906860 153.572693,322.708618 
	C153.556122,328.126190 153.645309,332.695221 153.734497,337.264221 
	C153.713959,339.808868 153.693405,342.353546 153.654785,345.319031 
	C152.617340,346.437805 151.597977,347.135742 150.164062,347.624573 
	C149.552353,347.163605 149.296722,347.007263 148.982635,346.946442 
	C148.982635,346.946442 149.019211,347.033447 149.064087,347.018860 
z"/>
<path fill="#0443BC" opacity="1.000000" stroke="none" 
	d="
M154.529816,280.847321 
	C154.031052,278.866882 153.817581,276.753937 153.708252,274.313843 
	C157.363739,274.162933 160.009201,273.440155 161.661163,269.539001 
	C163.717575,264.682831 168.314423,267.312622 171.822586,267.359711 
	C174.863892,267.400513 177.357773,268.758362 176.908386,273.011108 
	C172.254288,267.939606 168.467163,267.640656 163.296021,272.471771 
	C160.415878,275.162537 157.638687,277.963531 154.529816,280.847321 
z"/>
<path fill="#095DD0" opacity="1.000000" stroke="none" 
	d="
M176.891464,284.628845 
	C173.972870,287.442566 171.131653,289.882935 168.162735,292.156586 
	C165.989059,293.821259 163.647629,295.266876 161.007019,296.858704 
	C165.853989,291.338074 171.074921,285.768890 176.553345,279.979126 
	C176.845261,281.233673 176.879684,282.708832 176.891464,284.628845 
z"/>
<path fill="#0443BC" opacity="1.000000" stroke="none" 
	d="
M168.590271,256.738098 
	C165.296997,256.941071 161.635040,256.883728 157.981110,257.028717 
	C155.001358,257.146942 153.703766,255.843903 153.745682,252.909225 
	C153.807480,248.582962 153.774948,244.255341 153.807114,239.458221 
	C154.221786,241.589233 154.923157,244.187622 154.945709,246.791901 
	C155.023788,255.810913 154.934494,255.790573 163.808578,256.025513 
	C165.284454,256.064545 166.753082,256.378418 168.590271,256.738098 
z"/>
<path fill="#0443BC" opacity="1.000000" stroke="none" 
	d="
M64.275871,348.289520 
	C67.372078,344.424805 68.237968,348.461700 69.777939,349.694580 
	C70.140297,349.984680 69.640045,351.352295 69.536621,352.224182 
	C67.771454,351.022339 66.006279,349.820496 64.275871,348.289520 
z"/>
<path fill="#0443BC" opacity="1.000000" stroke="none" 
	d="
M72.311539,356.994934 
	C70.807884,356.859497 69.699921,356.726135 68.591965,356.592773 
	C68.584290,356.283325 68.576614,355.973877 68.568947,355.664429 
	C71.843086,355.664429 75.117226,355.664429 78.391373,355.664429 
	C78.439644,355.968170 78.487923,356.271912 78.536194,356.575653 
	C76.593208,356.716095 74.650223,356.856537 72.311539,356.994934 
z"/>
<path fill="#0443BC" opacity="1.000000" stroke="none" 
	d="
M154.169312,270.691956 
	C154.688675,267.967590 151.610565,262.956024 158.590057,263.004211 
	C157.453827,265.484802 155.903107,267.929596 154.169312,270.691956 
z"/>
<path fill="#0443BC" opacity="1.000000" stroke="none" 
	d="
M161.371552,263.242004 
	C164.057175,263.083160 167.078232,263.098328 170.544708,263.201080 
	C167.895737,263.331146 164.801361,263.373596 161.371552,263.242004 
z"/>
<path fill="#0443BC" opacity="1.000000" stroke="none" 
	d="
M174.064026,262.877869 
	C173.959000,262.152374 174.177689,261.411804 174.559509,260.317139 
	C175.253586,260.429108 175.784515,260.895172 176.315430,261.361267 
	C175.672867,261.861755 175.030304,262.362274 174.064026,262.877869 
z"/>
<path fill="#0443BC" opacity="1.000000" stroke="none" 
	d="
M95.988861,227.244324 
	C96.031075,226.750610 96.209106,226.393951 96.387138,226.037292 
	C96.660660,226.317307 96.934181,226.597321 97.207695,226.877319 
	C96.846687,227.045334 96.485680,227.213348 95.988861,227.244324 
z"/>
<path fill="#0443BC" opacity="1.000000" stroke="none" 
	d="
M171.881622,256.909790 
	C171.994461,256.975098 171.506882,256.988007 171.265610,256.954407 
	C171.262863,256.782074 171.511017,256.756622 171.881622,256.909790 
z"/>
<path fill="#1C79C5" opacity="1.000000" stroke="none" 
	d="
M149.146545,347.089355 
	C149.296722,347.007263 149.552353,347.163605 149.844940,347.619598 
	C149.727829,347.629364 149.517868,347.432190 149.146545,347.089355 
z"/>
<path fill="#0244C4" opacity="1.000000" stroke="none" 
	d="
M67.022659,296.738525 
	C67.022659,296.738525 66.566063,296.927765 66.326096,296.986450 
	C58.194641,297.902863 56.873974,290.187469 52.577545,286.405731 
	C52.040436,285.932953 53.288994,283.272369 53.895084,281.696625 
	C54.845676,279.225159 56.723213,276.854126 56.851871,274.370331 
	C57.247677,266.729401 57.031860,259.054932 56.987282,251.393875 
	C56.968140,248.104446 57.373222,245.300598 60.587952,243.216293 
	C61.896118,242.368134 62.472870,239.914032 62.720879,238.100174 
	C62.854763,237.120956 61.810822,235.616058 60.871197,235.004684 
	C60.383099,234.687103 58.818909,235.621338 58.007038,236.305832 
	C57.005840,237.149948 56.430378,238.520782 55.395748,239.297363 
	C54.374695,240.063751 53.010239,240.372604 51.796444,240.882187 
	C51.408043,239.404556 50.213375,237.133270 50.760971,236.576996 
	C54.558128,232.719482 58.671642,229.163788 62.826431,225.681625 
	C63.279278,225.302109 64.675873,225.909973 65.569672,226.237457 
	C66.336227,226.518311 67.127533,227.531616 67.702843,227.389709 
	C69.711174,226.894318 71.630600,226.038528 73.583809,225.319702 
	C72.229675,224.299973 70.875534,223.280243 69.260696,222.131058 
	C72.695030,221.669449 76.390060,221.337311 80.540184,221.007172 
	C82.035194,222.017258 83.075127,223.025330 85.487358,225.363678 
	C84.260582,225.852570 83.078323,226.114914 82.131721,226.736252 
	C77.420906,229.828461 76.791458,236.342728 80.722969,240.544876 
	C82.800591,242.765549 84.146996,251.743637 82.415733,254.126785 
	C81.695801,255.117828 79.998863,255.782547 78.689751,255.886795 
	C75.397148,256.148987 72.046722,255.776367 68.773010,256.140076 
	C67.435432,256.288666 66.236038,257.681152 65.119690,258.686584 
	C65.275490,259.121582 65.285378,259.377747 65.246872,260.118317 
	C65.198479,260.602753 65.043434,261.056000 65.043434,261.056000 
	C65.131905,261.355957 65.175522,261.662292 65.224365,262.335602 
	C65.274445,262.696228 65.683060,262.865692 65.683060,262.865692 
	C65.683060,262.865692 66.113754,262.719513 66.113754,262.719513 
	C66.113754,262.719513 66.518143,262.761353 66.713165,263.316223 
	C66.946350,274.826874 66.984505,285.782715 67.022659,296.738525 
z"/>
<path fill="#0244C4" opacity="1.000000" stroke="none" 
	d="
M186.183838,355.873352 
	C186.175476,356.044617 186.106003,356.146881 186.036530,356.249146 
	C185.957092,356.159607 185.877686,356.070068 185.798264,355.980530 
	C185.906418,355.921814 186.014572,355.863068 186.183838,355.873352 
z"/>
<path fill="#030F28" opacity="1.000000" stroke="none" 
	d="
M228.312775,287.987000 
	C229.626175,274.463928 236.285690,267.896393 247.457703,268.960785 
	C252.521439,269.443207 256.559143,271.817108 259.085297,276.466339 
	C263.619232,284.810699 262.673279,295.896759 256.726471,303.183868 
	C251.560120,309.514648 238.183792,309.509216 233.746262,302.558960 
	C231.081177,298.384766 230.065155,293.157715 228.312775,287.987000 
z"/>
<path fill="#0F94E6" opacity="1.000000" stroke="none" 
	d="
M411.992371,313.992371 
	C411.985687,311.821442 411.985687,309.657074 411.985687,307.492706 
	C412.672852,307.573486 413.360046,307.654266 414.047211,307.735046 
	C413.564392,309.693939 413.081573,311.652832 412.305847,313.810547 
	C412.012970,314.009399 411.999084,313.998932 411.992371,313.992371 
z"/>
<path fill="#0F94E6" opacity="1.000000" stroke="none" 
	d="
M420.012939,291.019775 
	C420.231110,291.287476 420.300415,291.548126 420.369720,291.808746 
	C420.117310,291.797943 419.864868,291.787140 419.612457,291.776337 
	C419.696350,291.521790 419.780243,291.267273 420.012939,291.019775 
z"/>
<path fill="#0F94E6" opacity="1.000000" stroke="none" 
	d="
M420.499390,295.495178 
	C420.503845,295.511169 420.494934,295.479187 420.499390,295.495178 
z"/>
<path fill="#03A3FA" opacity="1.000000" stroke="none" 
	d="
M543.571167,319.895538 
	C527.921753,320.587463 518.049133,307.033020 520.284180,292.810638 
	C520.850281,289.208282 522.247559,285.364410 524.414307,282.503693 
	C526.139954,280.225433 529.618652,279.275055 532.528198,278.213959 
	C533.992554,276.994629 535.444519,274.811676 536.924316,274.792694 
	C538.906616,274.767242 540.910400,276.417206 543.885315,277.805237 
	C543.460754,275.574829 543.280029,274.625122 543.108826,273.725830 
	C547.444702,271.525177 558.702942,283.451141 561.259338,292.688995 
	C561.078674,292.960449 560.953003,293.369659 560.699646,293.476593 
	C553.585266,296.480072 551.034851,295.125916 551.827026,287.672699 
	C552.407715,282.209351 550.469910,281.435425 545.824646,281.659576 
	C541.036072,281.890656 536.208130,281.146576 531.399170,281.172363 
	C528.609009,281.187317 527.019226,281.142670 528.420532,285.710327 
	C530.027100,290.947113 531.934021,294.474701 537.788757,295.633881 
	C537.502502,296.260559 537.216248,296.887268 536.929932,297.513947 
	C534.569946,297.348816 532.209900,297.183655 529.774963,297.013245 
	C528.039062,305.072876 530.454041,309.156860 538.647827,311.294678 
	C541.786194,312.113434 544.848328,313.539276 548.013123,313.774658 
	C549.149536,313.859131 550.485535,311.258118 552.435120,309.104187 
	C552.559753,309.203796 554.296936,309.960999 554.834290,311.227356 
	C555.239685,312.182648 554.503418,314.422668 553.590698,314.990509 
	C550.556152,316.878357 547.212524,318.269562 543.571167,319.895538 
z"/>
<path fill="#041836" opacity="1.000000" stroke="none" 
	d="
M532.208008,289.525726 
	C535.192383,283.662292 538.195984,281.889343 543.299805,283.172333 
	C547.143799,284.138672 549.481506,286.630615 549.449341,291.780090 
	C543.976562,291.780090 538.647339,291.821411 533.321838,291.699554 
	C532.907837,291.690063 532.520020,290.537140 532.208008,289.525726 
z"/>
<path fill="#03A3FA" opacity="1.000000" stroke="none" 
	d="
M542.252197,294.241577 
	C543.816895,294.937164 545.060425,295.671173 546.304016,296.405151 
	C546.070984,296.761200 545.837952,297.117279 545.604980,297.473328 
	C544.093750,296.810364 540.500916,299.064148 542.252197,294.241577 
z"/>
<path fill="#066FE2" opacity="1.000000" stroke="none" 
	d="
M343.289978,326.123596 
	C343.253174,325.481323 343.463867,324.959320 344.102356,324.130096 
	C344.976349,323.519196 345.422577,323.215454 345.868835,322.911743 
	C345.775177,320.824158 345.761139,318.729187 345.569244,316.650665 
	C345.283661,313.557343 343.602600,312.719788 340.475647,314.063599 
	C336.668671,313.176514 336.344666,311.622589 339.067688,309.160370 
	C340.158508,308.174011 340.790527,306.680237 341.628540,305.025757 
	C341.625702,304.634125 341.674011,304.679749 342.007385,304.614685 
	C342.799896,303.841339 343.259094,303.133026 343.739716,302.037537 
	C345.845490,296.669189 345.572449,291.822205 342.933838,287.109802 
	C340.747803,283.727386 338.566406,280.341949 336.373108,276.964233 
	C335.658234,275.863342 334.912384,274.782501 334.073853,273.367859 
	C336.124634,274.068787 338.205231,275.350433 340.466736,276.030579 
	C341.994507,276.490082 344.604828,276.799194 345.301697,275.971863 
	C348.224731,272.501343 351.957458,273.269989 354.805847,274.634277 
	C356.355804,275.376617 357.162109,279.099030 357.136505,281.464752 
	C357.001434,293.932465 356.746002,306.411804 355.970459,318.852112 
	C355.722778,322.825165 353.754059,326.690887 352.066833,330.812256 
	C350.372009,331.674133 349.183197,332.329468 347.994385,332.984802 
	C347.994385,332.984802 347.502380,332.992432 347.256470,332.994385 
	C345.852905,330.745514 344.695221,328.494690 343.289978,326.123596 
z"/>
<path fill="#05102D" opacity="1.000000" stroke="none" 
	d="
M342.621521,286.956238 
	C345.572449,291.822205 345.845490,296.669189 343.448181,302.163605 
	C342.648132,303.344513 342.161072,304.012146 341.674011,304.679749 
	C341.674011,304.679749 341.625702,304.634125 341.599762,304.655151 
	C337.200806,306.365021 333.021484,308.923889 328.411011,304.704773 
	C324.038452,300.703400 322.881226,292.072449 326.622864,287.443726 
	C330.784607,282.295319 336.556732,282.059418 342.621521,286.956238 
z"/>
<path fill="#0F5BB1" opacity="1.000000" stroke="none" 
	d="
M313.274780,283.806458 
	C313.696167,282.582947 314.435364,281.228790 315.460144,279.685974 
	C315.027985,280.890106 314.310303,282.282959 313.274780,283.806458 
z"/>
<path fill="#0F5BB1" opacity="1.000000" stroke="none" 
	d="
M317.658478,284.282166 
	C318.032837,284.613342 318.258850,285.063599 318.484863,285.513885 
	C318.217468,285.574249 317.950073,285.634583 317.682678,285.694946 
	C317.625153,285.263733 317.567657,284.832520 317.658478,284.282166 
z"/>
<path fill="#066FE2" opacity="1.000000" stroke="none" 
	d="
M332.752594,279.655090 
	C332.467499,280.078461 332.067352,280.363342 331.632507,280.577881 
	C331.592499,280.597595 331.331177,280.168671 331.172638,279.948120 
	C331.657776,279.797882 332.142914,279.647614 332.752594,279.655090 
z"/>
<path fill="#0F5BB1" opacity="1.000000" stroke="none" 
	d="
M316.285767,278.903320 
	C316.391357,278.580902 316.756348,278.153503 317.403381,277.660583 
	C317.305298,277.996185 316.925232,278.397278 316.285767,278.903320 
z"/>
<path fill="#03A3FA" opacity="1.000000" stroke="none" 
	d="
M496.490417,303.224884 
	C493.548676,306.585388 494.225281,309.003510 498.452240,309.629883 
	C502.041016,310.161713 505.788422,309.614288 509.381134,310.131531 
	C511.124451,310.382538 513.930786,311.834778 514.062744,312.993042 
	C514.385620,315.826843 512.657104,318.020416 509.272491,318.016022 
	C501.956360,318.006470 494.635834,318.145294 487.327301,317.908630 
	C485.615448,317.853149 482.571167,316.635986 482.515503,315.795929 
	C482.357941,313.417267 482.790741,310.502472 484.133759,308.609711 
	C489.224335,301.435577 494.871979,294.659637 500.095459,287.575623 
	C502.662964,284.093628 500.997833,281.971893 497.126648,281.457458 
	C494.337891,281.086853 491.346619,281.598083 488.727783,280.795502 
	C486.674194,280.166168 485.052673,278.126831 483.239197,276.713867 
	C485.073730,275.806641 486.872894,274.213379 488.749268,274.116577 
	C495.217468,273.782867 501.718872,273.810669 508.193359,274.064728 
	C510.004578,274.135834 513.259155,275.421906 513.279785,276.217285 
	C513.350159,278.932495 512.931641,282.102631 511.496307,284.320312 
	C508.705048,288.632965 505.089722,292.410889 501.832489,296.423889 
	C500.084961,298.576843 498.372101,300.757935 496.490417,303.224884 
z"/>
<path fill="#0663D9" opacity="1.000000" stroke="none" 
	d="
M348.347595,332.994812 
	C349.183197,332.329468 350.372009,331.674133 351.886353,331.121460 
	C351.041534,331.817688 349.871155,332.411255 348.347595,332.994812 
z"/>
<path fill="#0591F5" opacity="1.000000" stroke="none" 
	d="
M388.237274,316.914276 
	C386.012268,317.113647 383.965698,317.087433 381.197388,316.874023 
	C377.653290,314.788422 374.830872,312.890045 371.992737,310.620148 
	C371.557129,308.216003 371.137268,306.183411 370.567993,303.427490 
	C371.804688,304.202728 372.449158,304.606720 373.093628,305.010712 
	C374.726349,310.163391 382.520935,314.535156 387.274628,312.964386 
	C392.582123,311.210663 394.787018,304.764374 392.576477,298.546478 
	C391.781799,296.311127 388.969788,293.723053 392.580566,291.115753 
	C392.617523,290.898712 392.737915,290.774384 393.018951,290.700775 
	C393.186829,290.118652 393.073669,289.610138 392.960510,289.101654 
	C392.936035,288.318573 392.911530,287.535492 393.016296,286.151550 
	C392.736969,284.737793 392.328400,283.924866 391.919800,283.111969 
	C387.088531,279.638794 382.356598,280.995056 377.398132,283.020111 
	C375.732056,283.700562 373.134125,283.538605 371.629303,282.641937 
	C370.706970,282.092346 370.235413,278.647797 370.989136,277.846863 
	C372.845245,275.874481 375.413269,273.608948 377.893677,273.347748 
	C391.287140,271.937378 398.079895,273.192993 403.057129,288.496826 
	C403.102936,296.991608 403.102295,305.129028 403.158417,313.758484 
	C399.448517,319.593018 398.001526,319.761444 392.536469,316.294769 
	C391.616425,315.711151 389.811676,316.522095 388.237274,316.914276 
z"/>
<path fill="#0591F5" opacity="1.000000" stroke="none" 
	d="
M367.440582,284.188354 
	C367.227722,283.342804 367.267944,282.569977 367.308167,281.797119 
	C367.724304,281.906372 368.140411,282.015656 368.556519,282.124908 
	C368.268890,282.836945 367.981262,283.549011 367.440582,284.188354 
z"/>
<path fill="#1385D8" opacity="1.000000" stroke="none" 
	d="
M391.956116,283.414734 
	C392.328400,283.924866 392.736969,284.737793 393.004517,285.759979 
	C392.573120,285.218689 392.282806,284.468079 391.956116,283.414734 
z"/>
<path fill="#1385D8" opacity="1.000000" stroke="none" 
	d="
M392.941162,289.363159 
	C393.073669,289.610138 393.186829,290.118652 393.086548,290.646729 
	C392.889313,290.319092 392.905548,289.971893 392.941162,289.363159 
z"/>
<path fill="#1059C0" opacity="1.000000" stroke="none" 
	d="
M328.790771,337.765289 
	C328.707733,337.747223 328.497101,337.554352 328.143616,337.200439 
	C328.237152,337.203857 328.457947,337.387512 328.790771,337.765289 
z"/>
<path fill="#0881F0" opacity="1.000000" stroke="none" 
	d="
M373.269318,304.724426 
	C372.449158,304.606720 371.804688,304.202728 370.567993,303.427490 
	C371.137268,306.183411 371.557129,308.216003 371.970215,310.641785 
	C371.963470,311.034943 371.918457,311.078186 371.645203,311.036072 
	C369.923401,312.008484 368.474823,313.023041 367.026245,314.037567 
	C366.350281,312.936279 365.674286,311.834991 364.913513,310.418579 
	C364.706879,309.583252 364.584961,309.063019 364.341675,308.307770 
	C364.693512,305.592590 365.166748,303.112457 366.188446,300.299988 
	C371.210480,299.585144 371.326996,299.474579 369.863739,297.000336 
	C369.907837,296.832977 369.951965,296.665619 370.313934,296.166565 
	C371.082520,295.575775 371.533234,295.316711 371.983978,295.057648 
	C373.427521,294.904663 374.871094,294.751678 376.626648,294.568359 
	C379.092133,299.008942 374.731049,301.180969 373.269318,304.724426 
z"/>
<path fill="#041836" opacity="1.000000" stroke="none" 
	d="
M379.131500,301.726868 
	C382.084442,301.040497 384.694305,300.532196 387.312592,300.072144 
	C391.351959,299.362457 391.924561,301.563324 391.114624,304.754059 
	C389.864044,309.680542 381.560791,312.153992 377.896179,308.629700 
	C375.294830,306.128021 376.414490,303.885864 379.131500,301.726868 
z"/>
<path fill="#1385D8" opacity="1.000000" stroke="none" 
	d="
M369.593231,297.144867 
	C371.326996,299.474579 371.210480,299.585144 366.363281,299.972931 
	C367.100616,299.081940 368.211670,298.185669 369.593231,297.144867 
z"/>
<path fill="#1385D8" opacity="1.000000" stroke="none" 
	d="
M371.728760,295.124725 
	C371.533234,295.316711 371.082520,295.575775 370.387451,295.917542 
	C370.586578,295.730774 371.030060,295.461273 371.728760,295.124725 
z"/>
<path fill="#1059C0" opacity="1.000000" stroke="none" 
	d="
M345.663391,322.819275 
	C345.422577,323.215454 344.976349,323.519196 344.267883,323.900635 
	C344.038422,323.597168 344.071167,323.215973 344.147614,322.554138 
	C344.613525,322.424591 345.035736,322.575714 345.663391,322.819275 
z"/>
<path fill="#0881F0" opacity="1.000000" stroke="none" 
	d="
M371.985962,311.013306 
	C374.830872,312.890045 377.653290,314.788422 380.760864,316.877319 
	C381.507996,320.885437 378.548828,319.757874 376.247375,320.167114 
	C375.869904,320.207611 375.444916,320.101135 375.011841,319.885437 
	C374.073975,319.462219 373.569244,319.254669 373.064514,319.047119 
	C373.064514,319.047119 372.999207,319.001373 372.972229,318.574036 
	C372.602997,315.790527 372.260712,313.434357 371.918457,311.078186 
	C371.918457,311.078186 371.963470,311.034943 371.985962,311.013306 
z"/>
<path fill="#1385D8" opacity="1.000000" stroke="none" 
	d="
M371.645203,311.036072 
	C372.260712,313.434357 372.602997,315.790527 372.941467,318.548676 
	C371.106140,317.478638 369.274658,316.006622 367.234680,314.286072 
	C368.474823,313.023041 369.923401,312.008484 371.645203,311.036072 
z"/>
<path fill="#1385D8" opacity="1.000000" stroke="none" 
	d="
M373.280884,319.215332 
	C373.569244,319.254669 374.073975,319.462219 374.798035,319.837677 
	C374.510651,319.798218 374.003967,319.590881 373.280884,319.215332 
z"/>
<path fill="#0465E5" opacity="1.000000" stroke="none" 
	d="
M96.178436,296.674500 
	C95.749138,296.024445 95.319832,295.374390 94.842400,293.989197 
	C94.765968,292.520294 94.737663,291.786530 94.790367,290.587555 
	C94.812134,284.400208 94.752899,278.678070 94.751183,272.584961 
	C94.802429,271.464935 94.796158,270.715912 94.789879,269.966858 
	C95.302826,262.710602 95.302811,262.694000 102.591652,262.688049 
	C116.024254,262.677124 129.460907,262.876740 142.887360,262.590179 
	C147.786606,262.485626 149.244705,264.100677 148.884964,268.882843 
	C148.475830,274.321259 148.855255,279.819031 148.908508,285.779114 
	C145.598190,289.559052 142.271286,292.850861 138.558075,295.753601 
	C138.074493,292.280609 136.448761,291.209198 133.413895,290.918518 
	C128.718628,290.468842 123.864189,290.930847 119.500916,290.579376 
	C113.837601,290.123169 108.920227,293.160614 103.435799,291.963379 
	C101.078369,291.448761 98.989777,292.645020 100.731766,295.794678 
	C100.731766,295.794678 100.393417,295.774750 100.011063,295.831238 
	C98.478607,296.149963 97.328522,296.412231 96.178436,296.674500 
z"/>
<path fill="#066FE2" opacity="1.000000" stroke="none" 
	d="
M101.100227,295.827332 
	C98.989777,292.645020 101.078369,291.448761 103.435799,291.963379 
	C108.920227,293.160614 113.837601,290.123169 119.500916,290.579376 
	C123.864189,290.930847 128.718628,290.468842 133.413895,290.918518 
	C136.448761,291.209198 138.074493,292.280609 138.218231,295.783081 
	C138.264664,296.201660 138.167313,296.149536 138.123352,296.223022 
	C137.971146,296.568115 138.003632,296.826935 138.176819,297.073029 
	C127.558426,309.676239 127.558426,309.676239 116.212692,298.496185 
	C110.421486,292.789551 108.587158,292.461578 101.100227,295.827332 
z"/>
<path fill="#1C79C5" opacity="1.000000" stroke="none" 
	d="
M148.457397,308.178040 
	C148.767212,310.086975 148.789719,312.121277 148.721588,314.582458 
	C144.579010,317.684479 140.517395,320.345154 136.478867,323.040405 
	C134.170975,324.580627 131.900681,326.177216 129.296799,327.912109 
	C124.073868,328.332977 119.279610,328.353790 117.243431,322.150513 
	C117.536125,321.897858 117.886787,321.957336 118.143639,322.145172 
	C127.339989,328.870056 128.485367,328.751862 136.473114,320.396088 
	C140.348267,316.342407 144.269638,312.332886 148.457397,308.178040 
z"/>
<path fill="#032066" opacity="1.000000" stroke="none" 
	d="
M96.421692,296.854950 
	C97.328522,296.412231 98.478607,296.149963 100.021408,295.662079 
	C100.505196,296.175201 100.596275,296.913910 100.448364,297.854858 
	C99.027901,297.716492 97.846428,297.375946 96.421692,296.854950 
z"/>
<path fill="#1C79C5" opacity="1.000000" stroke="none" 
	d="
M116.132263,320.546875 
	C115.502510,320.117798 114.811684,319.383789 114.068779,318.330566 
	C114.701530,318.754883 115.386360,319.498413 116.132263,320.546875 
z"/>
<path fill="#1C79C5" opacity="1.000000" stroke="none" 
	d="
M113.851212,317.739105 
	C113.417809,317.508820 112.845558,317.035522 112.160782,316.299683 
	C112.602966,316.523438 113.157669,317.009766 113.851212,317.739105 
z"/>
<path fill="#095DD0" opacity="1.000000" stroke="none" 
	d="
M159.863388,297.452332 
	C159.894409,297.600708 159.805786,297.837158 159.691330,298.159241 
	C159.568268,298.006805 159.594360,297.771973 159.863388,297.452332 
z"/>
<path fill="#1C79C5" opacity="1.000000" stroke="none" 
	d="
M117.020721,321.695862 
	C116.813438,321.764282 116.575928,321.541901 116.191002,321.121399 
	C116.345078,321.098938 116.660713,321.259521 117.020721,321.695862 
z"/>
<path fill="#0465E5" opacity="1.000000" stroke="none" 
	d="
M138.263229,296.818756 
	C138.003632,296.826935 137.971146,296.568115 138.143341,296.171570 
	C138.254745,296.219238 138.302200,296.391846 138.263229,296.818756 
z"/>
<path fill="#0244C4" opacity="1.000000" stroke="none" 
	d="
M153.820114,336.783813 
	C153.645309,332.695221 153.556122,328.126190 153.611176,323.160339 
	C153.805542,327.276794 153.855637,331.790100 153.820114,336.783813 
z"/>
<path fill="#0F5BB1" opacity="1.000000" stroke="none" 
	d="
M88.818703,301.659424 
	C89.117722,301.786560 89.500710,302.152527 89.855988,302.807648 
	C89.519745,302.697266 89.211212,302.297760 88.818703,301.659424 
z"/>
<path fill="#1276EB" opacity="1.000000" stroke="none" 
	d="
M96.539566,345.671844 
	C96.514877,345.680573 96.564247,345.663116 96.539566,345.671844 
z"/>
<path fill="#086BE8" opacity="1.000000" stroke="none" 
	d="
M67.281227,296.757996 
	C66.984505,285.782715 66.946350,274.826874 66.900009,263.396271 
	C72.148521,262.876190 77.405235,262.793335 82.661926,262.794800 
	C89.804741,262.796753 89.804733,262.824402 90.068130,270.883606 
	C90.152893,272.113403 90.175613,272.572205 90.089157,273.486328 
	C90.006927,281.279419 90.033867,288.617157 90.060806,295.954926 
	C90.060806,295.954926 89.856247,295.967804 89.406219,295.972595 
	C88.255211,296.087830 87.554222,296.198273 86.853233,296.308716 
	C85.880333,296.330597 84.907440,296.352448 83.171997,296.305115 
	C81.878258,296.286530 81.347076,296.337158 80.815887,296.387817 
	C80.436569,296.393402 80.057251,296.399017 78.950844,296.270538 
	C74.832504,296.319183 71.441246,296.501892 68.049995,296.684631 
	C67.879921,296.715576 67.709854,296.746521 67.281227,296.757996 
z"/>
<path fill="#031B4B" opacity="1.000000" stroke="none" 
	d="
M121.000000,261.013306 
	C113.173599,261.013336 105.847153,261.013336 98.520714,261.013336 
	C98.534348,260.503662 98.547981,259.993988 98.561615,259.484314 
	C113.519600,259.484314 128.477570,259.484314 143.435562,259.484314 
	C143.449417,259.993958 143.463287,260.503601 143.477142,261.013245 
	C136.151413,261.013245 128.825699,261.013245 121.000000,261.013306 
z"/>
<path fill="#031B4B" opacity="1.000000" stroke="none" 
	d="
M90.198334,273.030975 
	C90.175613,272.572205 90.152893,272.113403 90.175507,271.312653 
	C91.236656,269.414978 91.987350,267.079437 94.582382,269.762634 
	C94.796158,270.715912 94.802429,271.464935 94.463455,272.820557 
	C93.521072,278.366394 92.923935,283.305634 92.326797,288.244904 
	C92.063828,288.220734 91.800858,288.196564 91.537888,288.172394 
	C91.091370,283.125275 90.644852,278.078125 90.198334,273.030975 
z"/>
<path fill="#031B4B" opacity="1.000000" stroke="none" 
	d="
M90.101395,258.747589 
	C91.710495,259.287964 93.082169,260.039276 94.453842,260.790588 
	C93.928902,261.348602 93.403969,261.906647 92.879044,262.464661 
	C91.874016,261.295959 90.868988,260.127228 90.101395,258.747589 
z"/>
<path fill="#0443BC" opacity="1.000000" stroke="none" 
	d="
M65.129303,260.963837 
	C65.043434,261.056000 65.198479,260.602753 65.248856,260.502808 
	C65.299225,260.402893 65.215172,260.871674 65.129303,260.963837 
z"/>
<path fill="#0443BC" opacity="1.000000" stroke="none" 
	d="
M65.865463,262.624908 
	C66.113754,262.719513 65.683060,262.865692 65.683060,262.865692 
	C65.683060,262.865692 65.274445,262.696228 65.184532,262.564880 
	C65.268799,262.465759 65.442978,262.498016 65.865463,262.624908 
z"/>
<path fill="#0244C4" opacity="1.000000" stroke="none" 
	d="
M84.232338,238.404968 
	C84.316399,236.608612 84.342247,234.894501 85.093712,233.602417 
	C85.350525,233.160843 87.626564,233.453690 88.592865,234.044357 
	C89.100380,234.354568 89.207977,236.630630 88.734421,236.976715 
	C87.539223,237.850220 85.912354,238.133072 84.232338,238.404968 
z"/>
<path fill="#032066" opacity="1.000000" stroke="none" 
	d="
M90.089165,273.486328 
	C90.644852,278.078125 91.091370,283.125275 91.537888,288.172394 
	C91.800858,288.196564 92.063828,288.220734 92.326797,288.244904 
	C92.923935,283.305634 93.521072,278.366394 94.405930,273.191528 
	C94.752899,278.678070 94.812134,284.400208 94.446350,290.601196 
	C93.018150,292.050018 92.014984,293.019989 91.011818,293.989990 
	C90.806732,294.500305 90.601646,295.010590 90.228683,295.737915 
	C90.033867,288.617157 90.006927,281.279419 90.089165,273.486328 
z"/>
<path fill="#031B4B" opacity="1.000000" stroke="none" 
	d="
M91.372978,293.995056 
	C92.014984,293.019989 93.018150,292.050018 94.365341,291.066406 
	C94.737663,291.786530 94.765968,292.520294 94.709229,293.613678 
	C93.660835,293.982269 92.697487,293.991211 91.372978,293.995056 
z"/>
<path fill="#0443BC" opacity="1.000000" stroke="none" 
	d="
M68.488434,296.748840 
	C71.441246,296.501892 74.832504,296.319183 78.668152,296.235962 
	C75.717316,296.494629 72.322090,296.653839 68.488434,296.748840 
z"/>
<path fill="#0443BC" opacity="1.000000" stroke="none" 
	d="
M87.092804,296.415039 
	C87.554222,296.198273 88.255211,296.087830 89.307541,296.000244 
	C88.883385,296.189240 88.107872,296.355316 87.092804,296.415039 
z"/>
<path fill="#0443BC" opacity="1.000000" stroke="none" 
	d="
M81.040550,296.502655 
	C81.347076,296.337158 81.878258,296.286530 82.807198,296.292542 
	C82.558372,296.438599 81.911789,296.528046 81.040550,296.502655 
z"/>
<path fill="#095DD0" opacity="1.000000" stroke="none" 
	d="
M342.007385,304.614685 
	C342.161072,304.012146 342.648132,303.344513 343.426727,302.550842 
	C343.259094,303.133026 342.799896,303.841339 342.007385,304.614685 
z"/>
</svg>